<svg width="655" height="526" viewBox="0 0 655 526" fill="none" xmlns="http://www.w3.org/2000/svg">
<path d="M350.361 39.8379C376.417 39.6754 399.587 41.6794 424.852 48.4414C426.331 48.8369 426.331 48.8367 427.839 49.2402C427.839 49.2402 431.083 51.5624 431.083 52.0625C430.234 52.0468 430.233 52.0473 429.368 52.0312C374.922 51.1697 319.033 61.6443 274.083 94.0625L271.18 96.1367C253.903 108.783 238.173 123.119 225.374 140.327C224.532 141.458 223.685 142.584 222.831 143.704C187.204 190.425 173.255 250.409 180.145 308.375C184.922 343.5 197.349 379.108 218.083 408.062C218.531 408.69 218.978 409.318 219.44 409.965C232.894 428.65 247.872 445.873 266.083 460.062L268.954 462.414C297.859 485.612 334.714 501.255 371.083 508.062C371.798 508.197 372.513 508.332 373.25 508.471C394.425 512.363 415.585 513.434 437.083 513.062C436.083 515.062 436.082 515.063 434.143 515.793C433.299 516.015 432.456 516.236 431.586 516.465C430.172 516.839 430.172 516.838 428.729 517.22C427.711 517.477 426.694 517.735 425.645 518C424.609 518.266 423.573 518.532 422.505 518.806C407.262 522.625 391.833 525.189 376.098 525.266C375.162 525.271 374.225 525.277 373.26 525.283C371.284 525.293 369.307 525.299 367.331 525.303C364.382 525.312 361.434 525.343 358.485 525.375C341.664 525.47 325.101 523.911 308.833 519.438C307.893 519.184 306.954 518.93 305.986 518.669C268.386 508.188 232.903 490.752 204.196 464.023C202.248 462.216 200.246 460.515 198.208 458.812C154.383 420.345 128.234 358.274 124.364 300.965C120.75 233.397 138.968 168.167 184.453 117.002C186.614 114.64 188.842 112.348 191.083 110.062C191.594 109.532 192.105 109.002 192.631 108.456C199.711 101.117 206.952 94.2472 215.083 88.0625C215.723 87.5729 216.363 87.0836 217.023 86.5791C227.866 78.3427 239.013 71.3474 251.083 65.0625C252.262 64.4326 253.442 63.8023 254.622 63.1719C276.496 51.7994 298.887 46.1413 323.032 41.8594C323.767 41.7289 324.503 41.5983 325.26 41.4639C332.735 40.4006 340.145 39.9 347.692 39.8594C348.573 39.8523 349.453 39.8452 350.361 39.8379ZM84.0815 45.0625C85.4673 47.834 84.8676 49.5371 84.4097 52.5977C84.2412 53.7794 84.0735 54.9612 83.8999 56.1787C83.7126 57.481 83.5245 58.7833 83.3315 60.125C81.5264 73.1568 80.3212 86.1906 79.394 99.3125C79.3036 100.58 79.3037 100.58 79.2114 101.872C79.0356 104.357 78.8639 106.843 78.6948 109.328C78.6232 110.379 78.6234 110.379 78.5503 111.451C77.5925 126.065 76.9028 140.688 76.5308 155.328C76.5099 156.133 76.4897 156.939 76.4683 157.769C75.909 180.064 75.895 202.363 75.897 224.664C75.8971 229.451 75.89 234.238 75.8765 239.025C75.6194 273.08 75.6189 273.08 77.6509 307.052C77.9763 310.551 78.2252 314.037 78.3315 317.55C78.3574 318.346 78.383 319.142 78.4097 319.962C77.9942 322.625 77.1999 323.442 75.0815 325.062C72.0077 326.09 72.0072 326.09 68.394 327C55.6257 330.472 48.509 335.243 41.4995 346.539C33.2128 361.287 39.8446 388.741 41.269 404.875C41.4394 406.856 41.6106 408.837 41.7808 410.817C44.4001 441.206 47.5022 471.537 52.646 501.614L53.2612 505.281C53.4441 506.332 53.6275 507.384 53.8159 508.467C54.082 511.062 54.0815 511.063 53.0815 514.062C25.5957 468.501 8.69492 416.999 3.08154 364.062L2.76514 361.09C-6.10769 272.249 4.59096 174.04 61.0815 71.0625C61.7286 70.1764 61.7291 70.1764 62.3892 69.2725C68.9086 60.4418 76.1413 52.6286 84.0815 45.0625ZM583.958 0C587.274 1.6582 588.393 4.89426 590.083 8.0625C590.47 8.78781 590.857 9.51346 591.255 10.2607C592.604 12.8141 593.939 15.3748 595.27 17.9375L596.826 20.9258C602.075 31.023 607.29 41.139 612.49 51.2617C615.806 57.7154 619.13 64.1648 622.494 70.5938C623.967 73.409 625.435 76.2273 626.903 79.0449C627.596 80.3719 628.292 81.698 628.99 83.0225C636.626 97.513 642.286 112.137 638.176 128.719C636.003 134.68 633.437 139.605 629.122 144.281C627.615 146.864 628.353 148.181 629.083 151.062C629.879 153.502 630.702 155.919 631.559 158.336C641.576 187.129 648.636 215.674 652.083 246.062C652.169 246.791 652.255 247.52 652.343 248.271C654.083 263.253 654.444 278.115 654.395 293.188C654.393 294.355 654.391 295.522 654.389 296.725C654.345 313.677 654.002 330.322 651.083 347.062C650.911 348.084 650.739 349.106 650.562 350.159C641.478 402.973 620.046 450.025 583.083 489.062C583.083 485.744 583.803 483.963 585.067 480.91C585.502 479.842 585.936 478.774 586.384 477.674C586.862 476.503 587.34 475.332 587.833 474.125C601.716 439.548 612.762 403.805 619.083 367.062C619.37 365.466 619.658 363.87 619.946 362.273C620.621 358.417 621.199 354.554 621.726 350.675C621.972 348.871 622.23 347.068 622.497 345.268C628.215 305.588 627.201 263.627 621.083 224.062C620.818 222.223 620.818 222.223 620.547 220.347C618.11 203.527 614.323 187.165 610.029 170.738C609.834 169.991 609.64 169.243 609.44 168.473C609.074 167.069 608.703 165.665 608.327 164.264C607.481 161.03 607.083 158.443 607.083 155.062L605.098 155.203C592.268 155.711 581.819 151.172 572.395 142.625L570.083 140.062L568.661 138.617C560.619 130.037 556.877 118.389 553.036 107.496C552.576 106.21 552.114 104.924 551.653 103.639C550.447 100.273 549.25 96.9045 548.055 93.5352C546.167 88.2179 544.264 82.9058 542.365 77.5928C541.663 75.6276 540.962 73.6612 540.262 71.6953C537.949 65.2093 535.603 58.738 533.186 52.29C532.724 51.057 532.262 49.8232 531.787 48.5527C530.914 46.2303 530.037 43.9094 529.154 41.5908C528.764 40.5543 528.374 39.5172 527.972 38.4492C527.63 37.5497 527.287 36.6504 526.935 35.7236C526.014 32.8519 525.51 30.0442 525.083 27.0625L530.083 26.0625C532.808 29.3691 534.46 32.8171 536.2 36.7227C536.493 37.3761 536.786 38.0299 537.088 38.7031C537.719 40.1091 538.349 41.5161 538.976 42.9238C540.647 46.6723 542.337 50.4127 544.028 54.1523C544.37 54.9083 544.711 55.6645 545.063 56.4434C549.703 66.677 554.625 76.7732 559.541 86.877C561.118 90.1355 562.677 93.402 564.231 96.6719C564.733 97.7274 565.235 98.7836 565.751 99.8711C566.693 101.853 567.632 103.837 568.57 105.821C571.442 112.166 571.443 112.166 575.083 118.062H578.083C577.593 111.257 576.134 105.757 573.575 99.457C573.217 98.5508 572.858 97.6446 572.49 96.7109C571.322 93.7616 570.14 90.8184 568.958 87.875C568.145 85.8286 567.334 83.7817 566.524 81.7344C564.056 75.5053 561.57 69.2836 559.083 63.0625C556.55 56.7201 554.022 50.3758 551.501 44.0283C550.537 41.6064 549.565 39.187 548.591 36.7686C548.003 35.2938 547.416 33.8188 546.829 32.3438C546.563 31.6896 546.297 31.0353 546.023 30.3613C544.542 26.6177 543.492 23.0755 543.083 19.0625C544.082 18.0626 544.083 18.0625 546.645 18L549.083 18.0625L551.214 22.3262C551.897 23.6911 552.579 25.0567 553.261 26.4219C555.616 31.1347 557.977 35.844 560.344 40.5508C566.348 52.5044 572.282 64.4822 578.014 76.5693C583.204 87.4828 588.641 98.2729 594.083 109.062H598.083C597.552 102.173 595.023 96.2434 592.458 89.875C591.736 88.0627 591.736 88.0627 591 86.2139C586.939 76.0399 582.736 65.9235 578.52 55.8125C578.202 55.0497 577.884 54.2868 577.556 53.501C574.362 45.8445 571.149 38.1976 567.868 30.5781C567.392 29.4647 566.916 28.3513 566.426 27.2041C565.556 25.1707 564.678 23.1409 563.788 21.1162C563.411 20.2323 563.033 19.3482 562.645 18.4375L561.649 16.1484C560.994 13.7359 561.274 12.3977 562.083 10.0625L567.083 9.0625C575.973 25.6156 584.344 42.4294 592.736 59.2383C594.764 63.3001 596.795 67.3604 598.828 71.4199C600.403 74.5675 601.977 77.7164 603.55 80.8652C604.3 82.3646 605.05 83.8636 605.8 85.3623C606.84 87.4398 607.878 89.5186 608.915 91.5977C609.504 92.7772 610.093 93.9566 610.701 95.1719C612.082 98.0623 612.083 98.0625 613.083 101.062L617.083 100.062C616.526 94.9777 615.369 90.7391 613.442 86.0078C613.167 85.3291 612.892 84.6505 612.609 83.9512C611.692 81.6933 610.762 79.4402 609.833 77.1875C609.18 75.5881 608.528 73.9883 607.875 72.3887C603.831 62.5115 599.651 52.6949 595.415 42.8984C594.936 41.7908 594.458 40.6831 593.965 39.542C591.588 34.0393 589.198 28.5415 586.791 23.0518C585.91 21.0244 585.029 18.9963 584.149 16.9688C583.737 16.0401 583.325 15.1111 582.901 14.1543C582.528 13.2919 582.156 12.4296 581.772 11.541C581.444 10.7934 581.117 10.0457 580.779 9.27539C579.974 6.71841 579.82 4.72782 580.083 2.0625C582.082 0.0626221 582.083 0.0624987 583.958 0ZM392.274 103.727C394.647 103.75 397.02 103.747 399.393 103.74C413.21 103.763 426.414 105.118 439.708 109.125C440.725 109.429 441.743 109.733 442.792 110.046C470.826 118.689 493.938 132.96 515.083 153.062L517.153 154.938C540.94 177.232 556.227 210.384 562.083 242.062C562.265 243.049 562.447 244.035 562.635 245.051C564.335 255.402 564.481 265.656 564.458 276.125C564.457 277.033 564.456 277.942 564.456 278.878C564.419 292.339 563.774 305.048 560.083 318.062C559.863 318.894 559.643 319.725 559.417 320.582C553.518 342.858 543.845 363.554 530.083 382.062L528.11 384.719C499.617 421.172 458.499 443.6 413.032 450.527C410.04 450.836 407.089 450.978 404.083 451.062L401.903 451.141C381.175 451.811 359.409 450.145 340.083 442.062C343.161 441.036 344.428 441.082 347.559 441.488C378.146 444.928 410.274 440.354 438.083 427.062L440.193 426.067C455.528 418.724 468.806 408.796 481.083 397.062L483.231 395.105C511.942 368.001 529.676 326.608 531.226 287.435C532.364 242.908 521.105 198.554 489.958 165.312C489.472 164.811 488.985 164.309 488.485 163.792C485.099 160.273 483.597 158.579 483.583 158.562L482.583 157.562C482.583 157.562 479.914 154.977 478.27 153.125C452.426 126.677 411.912 113.278 375.717 112.787C373.506 112.768 371.294 112.757 369.083 112.75C368.378 112.746 367.673 112.742 366.948 112.738C358.156 112.714 349.711 113.278 341.083 115.062C343.912 114.112 346.746 111.177 349.583 110.25L351.922 109.459C365.31 105.121 378.267 103.578 392.274 103.727Z" fill="white"/>
</svg>
