<svg width="611" height="501" viewBox="0 0 611 501" fill="none" xmlns="http://www.w3.org/2000/svg">
<path d="M194.042 8C219.87 -6.91169 252.896 1.93757 267.808 27.7654L286.308 59.8083L362.518 15.8083C388.346 0.896624 421.372 9.74588 436.283 35.5737L602.783 323.96C617.695 349.788 608.846 382.814 583.018 397.726L416.741 493.726C390.913 508.637 357.887 499.788 342.976 473.96L324.476 441.917L248.265 485.917C222.438 500.829 189.412 491.98 174.5 466.152L8 177.765C-6.91169 151.938 1.93757 118.912 27.7654 104L194.042 8ZM525.413 385.951L547.929 372.951C565.148 363.009 571.047 340.992 561.106 323.774L417.106 74.3583C407.165 57.1398 385.148 51.2403 367.929 61.1814L345.413 74.1814L525.413 385.951ZM434.308 316.152C449.219 341.98 440.37 375.006 414.542 389.917L359.117 421.917L366.117 434.042C376.058 451.26 398.075 457.16 415.294 447.218L501.03 397.718L321.03 85.9493L306.308 94.4493L434.308 316.152ZM162.601 137.618C158.527 135.667 155.028 136.334 152.102 139.618C151.47 145.332 151.803 151 153.102 156.619C158.705 172.785 166.205 187.953 175.602 202.119C172.295 210.228 168.628 218.062 164.602 225.619C157.315 220.339 153.814 222.006 154.101 230.619C155.951 233.796 157.785 236.961 159.601 240.118C156.819 248.671 152.819 256.504 147.601 263.618C145.156 261.84 142.49 260.507 139.602 259.618C135.024 260.986 133.523 263.986 135.101 268.618C136.736 271.75 138.57 274.751 140.602 277.619C135.65 285.858 131.482 294.525 128.101 303.619C126.405 311.983 127.905 319.648 132.601 326.618C133.268 327.951 133.935 327.951 134.602 326.618C153.694 300.69 173.36 275.19 193.601 250.118C199.128 249.94 203.628 252.107 207.101 256.619C217.434 270.952 227.769 285.286 238.102 299.619C238.769 300.618 238.769 301.619 238.102 302.618C232.683 313.215 227.85 324.048 223.602 335.118C224.881 340.802 227.214 345.969 230.601 350.619C233.38 347.392 236.381 344.392 239.602 341.619C245.098 335.29 251.097 329.455 257.601 324.118C259.752 325.235 262.087 325.902 264.602 326.118C265.035 323.947 265.368 321.78 265.602 319.619C277.095 314.565 289.094 311.564 301.601 310.618C296.73 306.913 292.73 302.413 289.601 297.118C278.228 296.218 266.895 294.885 255.602 293.118C245.547 277.509 237.213 261.009 230.601 243.619C229.311 243.061 228.478 242.061 228.101 240.619C227.291 236.761 227.459 233.095 228.602 229.619C229.392 228.325 230.391 227.158 231.601 226.119C260.115 221.795 288.783 218.961 317.602 217.618C322.195 217.253 326.528 216.254 330.601 214.619C323.001 203.309 312.335 196.808 298.602 195.118C293.9 194.946 289.233 194.447 284.602 193.619C281.905 186.771 276.904 183.77 269.601 184.618C269.365 187.727 269.699 190.728 270.602 193.619C268.968 194.28 267.134 194.612 265.101 194.618C258.092 194.189 251.259 193.522 244.602 192.618C242.225 188.402 239.224 184.568 235.601 181.119C232.708 179.97 229.708 179.469 226.601 179.618C226.524 183.333 226.857 186.999 227.601 190.618C218.524 189.845 209.524 188.513 200.601 186.619C192.905 175.421 185.405 164.087 178.101 152.618C173.7 146.715 168.533 141.715 162.601 137.618Z" fill="white"/>
</svg>
