<svg width="1040" height="392" viewBox="0 0 1040 392" fill="none" xmlns="http://www.w3.org/2000/svg">
<path fill-rule="evenodd" clip-rule="evenodd" d="M356 27C280.831 26.667 205.831 27.001 131 28C130.457 27.94 130.124 27.607 130 27C205.499 25.668 280.832 25.668 356 27Z" fill="white"/>
<path fill-rule="evenodd" clip-rule="evenodd" d="M722 51C721.333 51 721 51.333 721 52C718.85 49.74 716.683 47.407 714.5 45C713.833 44.333 713.833 43.667 714.5 43C717.205 45.536 719.705 48.203 722 51Z" fill="white"/>
<path fill-rule="evenodd" clip-rule="evenodd" d="M351 44C290.831 43.668 230.831 44.001 171 45C170.457 44.94 170.124 44.607 170 44C230.499 42.668 290.832 42.668 351 44Z" fill="white"/>
<path fill-rule="evenodd" clip-rule="evenodd" d="M536.5 0C579.201 42.535 621.701 85.201 664 128C659.767 127.982 656.933 125.649 655.5 121C655.167 122 654.833 123 654.5 124C653.649 120.888 652.483 120.554 651 123C650.58 121.174 650.58 119.174 651 117C649.376 116.86 648.21 117.527 647.5 119C646.585 118.172 645.919 117.172 645.5 116C644.833 117.333 644.167 118.667 643.5 120C642.861 117.272 641.694 116.772 640 118.5C641.981 119.105 642.315 120.105 641 121.5C641.667 123.167 642.333 124.833 643 126.5C642.333 126.833 641.667 127.167 641 127.5C642.167 128 643 128.833 643.5 130C644.305 127.599 645.138 127.766 646 130.5C644.527 131.21 643.86 132.376 644 134C608.383 97.049 572.383 60.382 536 24C504.586 55.082 473.253 86.082 442 117C521.284 199.445 599.284 282.945 676 367.5C740.67 368 805.33 368.167 870 368C802.82 368.628 742.16 369.295 688 370C688.219 371.175 687.886 372.175 687 373C683.936 373.621 680.936 374.455 678 375.5C679.73 377.352 680.896 377.186 681.5 375L683 376.5C683.096 377.873 682.93 379.373 682.5 381C683.755 381.711 684.921 382.544 686 383.5C683.036 384.069 680.37 383.402 678 381.5C679.215 379.404 680.049 379.571 680.5 382C681.232 379.794 680.565 378.128 678.5 377C677.833 378.333 677.167 378.333 676.5 377C675.833 379.667 675.167 379.667 674.5 377C673.833 381 673.167 381 672.5 377C671.529 377.698 670.363 377.698 669 377C666.944 377.548 665.277 378.714 664 380.5C665.473 381.21 666.14 382.376 666 384C667.855 383.772 668.688 384.439 668.5 386C666.5 384.667 664.5 384.667 662.5 386C662.874 383.731 662.874 381.398 662.5 379C661.5 379.333 660.5 379.667 659.5 380C658.516 377.705 657.683 378.039 657 381C658.486 382.802 659.486 384.802 660 387C657.07 388.286 648.07 388.453 633 387.5C636.333 387.167 639.667 386.833 643 386.5C642.192 386.192 641.525 385.692 641 385C642.608 384.182 644.275 383.515 646 383C648.603 384.062 651.27 384.228 654 383.5L653 382.5C653.808 382.192 654.475 381.692 655 381C653.971 381.204 652.971 380.704 652 379.5C653.333 379.167 654.667 378.833 656 378.5C654.569 378.035 653.403 377.201 652.5 376C651.782 376.951 650.949 377.117 650 376.5C649.353 374.891 648.52 373.391 647.5 372C646.5 373.333 645.5 373.333 644.5 372C644.261 369.775 645.095 369.442 647 371C652.281 370.214 657.615 369.714 663 369.5C606.499 369.333 550.165 368.833 494 368C552.337 368.333 610.67 368 669 367C668.876 366.393 668.543 366.06 668 366C588.34 287.506 509.506 208.173 431.5 128C401.514 156.819 372.014 186.152 343 216C354.688 228.021 366.355 240.021 378 252C377.026 253.135 375.859 254.135 374.5 255C372.177 252.511 369.677 250.178 367 248C365.39 246.948 363.723 246.948 362 248C360.853 247.682 360.019 247.016 359.5 246C358.816 247.284 358.983 248.451 360 249.5C357.313 250.841 355.647 252.507 355 254.5C355.964 256.225 356.631 258.059 357 260C346.994 250.661 337.327 240.994 328 231C307.39 249.943 287.39 269.609 268 290C297.855 322.219 325.522 354.719 351 387.5C317.925 359.93 285.591 331.43 254 302C225.616 329.72 196.949 357.053 168 384H167C193.978 354.687 220.978 325.353 248 296C223.763 273.265 199.93 249.932 176.5 226C126.572 274.932 75.739 322.765 24 369.5C15.871 375.96 8.037 382.794 0.5 390C0.333 389.667 0.167 389.333 0 389C44.906 336.922 90.74 285.589 137.5 235C149.818 221.515 162.651 208.515 176 196C204.333 224.667 232.667 253.333 261 282C280.669 262.33 300.003 242.33 319 222C310.351 212.184 301.518 202.517 292.5 193C238.827 137.827 184.993 82.827 131 28C205.831 27.001 280.831 26.667 356 27C381.312 53.313 406.645 79.646 432 106C467.041 70.792 501.875 35.459 536.5 0ZM351 44C290.831 43.668 230.831 44.001 171 45C225.218 98.7169 279.384 152.717 333.5 207C362.679 177.155 391.846 147.321 421 117.5C398.543 92.208 375.209 67.7079 351 44Z" fill="white"/>
<path fill-rule="evenodd" clip-rule="evenodd" d="M722 51C786.58 114.745 850.74 179.078 914.5 244C958.1 290.765 999.94 338.931 1040 388.5C1039.33 389.167 1038.67 389.167 1038 388.5C922.58 284.931 816.91 172.765 721 52C721 51.333 721.333 51 722 51Z" fill="white"/>
<path fill-rule="evenodd" clip-rule="evenodd" d="M664 128C751.09 215.087 837.75 302.421 924 390C777.33 391.167 630.668 391.333 484 390.5C441.827 346.827 399.494 303.327 357 260C356.631 258.059 355.964 256.225 355 254.5C355.647 252.507 357.313 250.841 360 249.5C358.983 248.451 358.816 247.284 359.5 246C360.019 247.016 360.853 247.682 362 248C363.723 246.948 365.39 246.948 367 248C369.677 250.178 372.177 252.511 374.5 255C375.859 254.135 377.026 253.135 378 252C416.667 290.333 455.333 328.667 494 367C494 367.333 494 367.667 494 368C550.165 368.833 606.499 369.333 663 369.5C657.615 369.714 652.281 370.214 647 371C645.095 369.442 644.261 369.775 644.5 372C645.5 373.333 646.5 373.333 647.5 372C648.52 373.391 649.353 374.891 650 376.5C650.949 377.117 651.782 376.951 652.5 376C653.403 377.201 654.569 378.035 656 378.5C654.667 378.833 653.333 379.167 652 379.5C652.971 380.704 653.971 381.204 655 381C654.475 381.692 653.808 382.192 653 382.5C653.333 382.833 653.667 383.167 654 383.5C651.27 384.228 648.603 384.062 646 383C644.275 383.515 642.608 384.182 641 385C641.525 385.692 642.192 386.192 643 386.5C639.667 386.833 636.333 387.167 633 387.5C648.07 388.453 657.07 388.286 660 387C659.486 384.802 658.486 382.802 657 381C657.683 378.039 658.516 377.705 659.5 380C660.5 379.667 661.5 379.333 662.5 379C662.874 381.398 662.874 383.731 662.5 386C664.5 384.667 666.5 384.667 668.5 386C668.688 384.439 667.855 383.772 666 384C666.14 382.376 665.473 381.21 664 380.5C665.277 378.714 666.944 377.548 669 377C670.363 377.698 671.529 377.698 672.5 377C673.167 381 673.833 381 674.5 377C675.167 379.667 675.833 379.667 676.5 377C677.167 378.333 677.833 378.333 678.5 377C680.565 378.128 681.232 379.794 680.5 382C680.049 379.571 679.215 379.404 678 381.5C680.37 383.402 683.036 384.069 686 383.5C684.921 382.544 683.755 381.711 682.5 381C682.93 379.373 683.096 377.873 683 376.5C682.5 376 682 375.5 681.5 375C680.896 377.186 679.73 377.352 678 375.5C680.936 374.455 683.936 373.621 687 373C687.886 372.175 688.219 371.175 688 370C742.16 369.295 802.82 368.628 870 368C870.44 368.065 870.77 367.899 871 367.5C795.13 289.798 719.464 211.965 644 134C643.86 132.376 644.527 131.21 646 130.5C645.138 127.766 644.305 127.599 643.5 130C643 128.833 642.167 128 641 127.5C641.667 127.167 642.333 126.833 643 126.5C642.333 124.833 641.667 123.167 641 121.5C642.315 120.105 641.981 119.105 640 118.5C641.694 116.772 642.861 117.272 643.5 120C644.167 118.667 644.833 117.333 645.5 116C645.919 117.172 646.585 118.172 647.5 119C648.21 117.527 649.376 116.86 651 117C650.58 119.174 650.58 121.174 651 123C652.483 120.554 653.649 120.888 654.5 124C654.833 123 655.167 122 655.5 121C656.933 125.649 659.767 127.982 664 128Z" fill="white"/>
<path fill-rule="evenodd" clip-rule="evenodd" d="M668 366C668.543 366.06 668.876 366.393 669 367C610.67 368 552.337 368.333 494 368C494 367.667 494 367.333 494 367C552.169 367.332 610.169 366.999 668 366Z" fill="white"/>
<path fill-rule="evenodd" clip-rule="evenodd" d="M167 384C167.333 384 167.667 384 168 384C166.298 386.895 163.964 388.728 161 389.5C162.87 387.46 164.87 385.627 167 384Z" fill="white"/>
</svg>
