<svg width="352" height="497" viewBox="0 0 352 497" fill="none" xmlns="http://www.w3.org/2000/svg">
<path d="M175.5 143C179.183 139.618 179.184 139.619 179.186 139.621C179.187 139.622 179.188 139.625 179.19 139.627C179.195 139.632 179.202 139.639 179.211 139.648C179.228 139.667 179.253 139.695 179.285 139.73C179.35 139.802 179.447 139.907 179.572 140.045C179.823 140.321 180.193 140.73 180.674 141.265C181.635 142.335 183.04 143.911 184.824 145.946C188.393 150.017 193.483 155.929 199.588 163.314C211.793 178.08 228.075 198.762 244.367 222.414C260.649 246.052 277.007 272.748 289.31 299.538C301.579 326.257 310 353.459 310 378C310 412.343 299.915 443.203 282.748 467.617C321.945 434.125 347 381.694 347 320C347 289.039 336.326 253.802 319.955 218.083C303.617 182.435 281.785 146.695 259.88 114.833C237.985 82.9853 216.079 55.1038 199.644 35.1816C191.428 25.2235 184.584 17.261 179.8 11.793C178.334 10.1173 177.059 8.67674 176 7.48438C174.941 8.67674 173.666 10.1173 172.2 11.793C167.416 17.261 160.572 25.2235 152.356 35.1816C135.921 55.1038 114.015 82.9853 92.1201 114.833C70.2148 146.695 48.3834 182.435 32.0449 218.083C15.6739 253.802 5 289.039 5 320C5 380.366 28.9897 431.863 66.7412 465.427C50.4938 441.369 41 411.323 41 378C41 353.459 49.4205 326.257 61.6904 299.538C73.9929 272.748 90.3506 246.052 106.633 222.414C122.925 198.762 139.207 178.08 151.412 163.314C157.517 155.929 162.607 150.017 166.176 145.946C167.96 143.911 169.365 142.335 170.326 141.265C170.807 140.73 171.177 140.321 171.428 140.045C171.553 139.907 171.65 139.802 171.715 139.73C171.747 139.695 171.772 139.667 171.789 139.648C171.798 139.639 171.805 139.632 171.81 139.627C171.812 139.625 171.813 139.622 171.814 139.621C171.816 139.619 171.817 139.618 175.5 143ZM175.5 143L179.183 139.618L175.5 135.608L171.817 139.618L175.5 143ZM255.76 370.589C259.22 379.88 261.115 389.936 261.115 400.442L261.108 401.548C260.516 448.291 222.441 486 175.558 486C128.305 486 90.0001 447.695 90 400.442C90 390.72 91.6217 381.382 94.6055 372.681C107.692 404.047 138.648 426.096 174.764 426.096C211.676 426.096 243.197 403.063 255.76 370.589ZM174.878 238.547C179.92 244.367 189.488 255.812 199.462 269.883C213.926 290.286 228.662 315.417 232.39 336.693C226.348 363.062 202.739 382.73 174.543 382.73L173.237 382.717C146.209 382.133 123.622 363.474 117.097 338.341C120.285 316.983 135.112 291.398 149.826 270.546C157.208 260.086 164.407 251.026 169.763 244.581C171.754 242.184 173.487 240.152 174.878 238.547Z" stroke="#55B56A" stroke-width="10"/>
</svg>
