<svg width="352" height="505" viewBox="0 0 352 505" fill="none" xmlns="http://www.w3.org/2000/svg">
<path d="M273.022 339C281.927 355.02 287 373.463 287 393.092C287 454.672 237.08 504.592 175.5 504.592C113.92 504.592 64.0001 454.671 64 393.092C64 374.497 68.5525 356.966 76.6025 341.551C87.2863 385.717 127.073 418.521 174.522 418.521C222.881 418.521 263.279 384.448 273.022 339Z" fill="#55B56A"/>
<path d="M176 0C176 0 352 192 352 320C352 401.516 309.165 467.653 247.1 496.44C282.118 471.813 305 429.006 305 378C305 284 175.5 143 175.5 143C175.5 143 46 284 46 378C46 428.044 68.0274 470.194 101.933 495.026C41.4743 465.528 0 400.21 0 320C0 192 176 0 176 0Z" fill="#55B56A"/>
</svg>
