<svg width="30" height="30" viewBox="0 0 30 30" fill="none" xmlns="http://www.w3.org/2000/svg">
<path d="M20.2919 19.9359C20.3262 19.9364 20.6337 20.2137 20.9784 20.5516L21.6039 21.1635L21.4789 21.2211C21.3403 21.282 21.1508 21.4746 21.1135 21.5964C21.0933 21.6606 21.0425 21.6235 20.6333 21.2177C20.3831 20.9675 20.1026 20.6768 20.0112 20.5719L19.8422 20.3792L19.913 20.2438C19.984 20.1017 20.1905 19.9359 20.2919 19.9359Z" fill="#FEFEFE"/>
<path d="M19.9164 19.5302C19.9266 19.5302 19.9842 19.5811 20.0451 19.6453L20.1565 19.7602L20.0315 19.8211C19.9064 19.8786 19.7103 20.1084 19.7102 20.1964C19.7102 20.2674 19.6662 20.2438 19.5648 20.1221C19.4566 19.9903 19.4634 19.9292 19.6021 19.7635C19.6799 19.6655 19.8656 19.5303 19.9164 19.5302Z" fill="#FEFEFE"/>
<path d="M19.5073 19.1583C19.5377 19.1583 19.6121 19.2124 19.6763 19.2766L19.788 19.3917L19.7068 19.4255C19.6087 19.4628 19.3823 19.6857 19.3552 19.7703C19.3248 19.8582 19.3011 19.8514 19.1659 19.7128L19.0508 19.5945L19.1388 19.4391C19.22 19.2869 19.3923 19.1583 19.5073 19.1583Z" fill="#FEFEFE"/>
<path d="M8.38177 8.41172C8.39868 8.41848 8.86548 8.86129 9.42005 9.40234C9.97463 9.94002 10.6712 10.6165 10.9688 10.9073C11.591 11.5126 12.024 11.925 12.9471 12.8008C13.85 13.6597 14.3503 14.1367 14.8068 14.5797C15.0198 14.7859 15.2837 15.036 15.3919 15.1375L15.588 15.3169L15.4799 15.3979C15.4225 15.4452 15.3479 15.5264 15.3141 15.5805L15.2568 15.6753L15.0401 15.4487C14.9217 15.3201 14.5193 14.8974 14.1474 14.5086C13.7754 14.1163 13.1566 13.4704 12.7779 13.0714C11.8107 12.0569 10.3904 10.5826 9.78177 9.96042C8.71996 8.87831 8.32111 8.45544 8.33802 8.42839C8.34819 8.41493 8.36829 8.405 8.38177 8.41172Z" fill="#FEFEFE"/>
<path d="M9.42344 19.9362C9.4471 19.9362 9.5113 19.9597 9.56875 19.9867C9.67696 20.0442 9.86979 20.2878 9.86979 20.3656C9.86984 20.423 9.92363 20.3626 9.2138 21.0826L8.64219 21.6573L8.59505 21.5661C8.52066 21.4241 8.37849 21.2853 8.23646 21.2211L8.10807 21.1635L8.74375 20.5516C9.09205 20.2134 9.39977 19.9362 9.42344 19.9362Z" fill="#FEFEFE"/>
<path d="M9.67031 19.6453C9.79881 19.51 9.78191 19.5167 9.90026 19.5776C10.0185 19.6418 10.2414 19.8851 10.2417 19.9563C10.2417 20.0137 10.0794 20.2404 10.0388 20.2404C10.0253 20.2402 10.0015 20.2032 9.99141 20.1594C9.96097 20.0376 9.82249 19.8853 9.68047 19.8177L9.55859 19.7602L9.67031 19.6453Z" fill="#FEFEFE"/>
<path d="M10.0456 19.2698C10.1673 19.1413 10.2046 19.1381 10.3635 19.2125C10.4886 19.2734 10.5969 19.4018 10.6307 19.5336C10.6476 19.5978 10.6238 19.6384 10.5326 19.7297C10.465 19.7939 10.4076 19.8413 10.4008 19.8313C10.3974 19.8245 10.3499 19.7535 10.2992 19.6758C10.2485 19.598 10.1471 19.4966 10.076 19.456L9.94089 19.3781L10.0456 19.2698Z" fill="#FEFEFE"/>
<path d="M16.3591 19.9901C16.3726 19.6216 16.4198 19.6487 16.4266 20.0273C16.4435 21.0959 15.473 21.8432 14.4214 21.5727C14.0528 21.4779 13.6131 21.1163 13.4576 20.7815L13.4172 20.6969L13.4779 20.7815C13.5083 20.8289 13.6199 20.9506 13.7281 21.0555C14.2557 21.5728 15.0505 21.6404 15.6794 21.2211C15.9465 21.0419 16.058 20.91 16.2169 20.5922C16.3353 20.3487 16.3456 20.3012 16.3591 19.9901Z" fill="#FEFEFE"/>
<path d="M14.0258 18.7526C14.1712 18.6748 14.4113 18.6647 14.4654 18.7323C14.5093 18.7863 14.5362 18.7661 14.0664 19.0771C13.9109 19.1785 13.762 19.2562 13.7383 19.2461C13.5998 19.1919 13.779 18.8811 14.0258 18.7526Z" fill="#FEFEFE"/>
<path d="M16.3591 10.1513C16.3726 9.78281 16.4198 9.80987 16.4266 10.1885C16.4435 11.2571 15.473 12.0044 14.4214 11.7339C14.0528 11.6391 13.6131 11.2775 13.4576 10.9427L13.4172 10.8581L13.4779 10.9427C13.5083 10.9901 13.6199 11.1118 13.7281 11.2167C14.2557 11.734 15.0505 11.8016 15.6794 11.3823C15.9465 11.2031 16.058 11.0712 16.2169 10.7534C16.3353 10.5099 16.3456 10.4624 16.3591 10.1513Z" fill="#FEFEFE"/>
<path d="M14.0258 8.9138C14.1712 8.83603 14.4113 8.82586 14.4654 8.89349C14.5093 8.94755 14.5363 8.9273 14.0664 9.23828C13.9109 9.33972 13.762 9.41767 13.7383 9.40755C13.5996 9.35345 13.7789 9.04231 14.0258 8.9138Z" fill="#FEFEFE"/>
<path fill-rule="evenodd" clip-rule="evenodd" d="M15 3C21.6274 3 27 8.37258 27 15C27 21.6274 21.6274 27 15 27C8.37258 27 3 21.6274 3 15C3 8.37258 8.37258 3 15 3ZM8.19245 8.06667C8.17549 8.06672 8.12491 8.09044 8.08438 8.12083C8.04382 8.14787 8.00994 8.20187 8.0099 8.23906C8.0099 8.28302 8.60173 8.91557 9.6737 10.0214C11.848 12.2565 12.1794 12.6048 14.1508 14.6776C15.2124 15.7967 15.6286 16.2296 15.6659 16.2669C15.6862 16.2838 15.9094 16.5138 16.1596 16.7742C16.4099 17.0346 16.8866 17.5283 17.2247 17.8732C17.5595 18.2181 18.0972 18.7762 18.4219 19.1076C21.0049 21.7717 21.2352 21.9989 21.3232 21.999C21.4381 21.999 21.641 21.9074 21.7424 21.8094C21.8642 21.6944 21.9557 21.4814 21.9286 21.3799C21.9183 21.3358 21.4482 20.8523 20.8362 20.2539C20.2445 19.6791 19.4939 18.952 19.1693 18.6341C18.8447 18.3196 18.3273 17.8158 18.0195 17.5182C17.7118 17.2207 17.2179 16.7406 16.9203 16.4497C16.6228 16.1623 16.1732 15.7294 15.9229 15.4893C15.6727 15.2492 15.3005 14.8907 15.0943 14.6911C14.8913 14.4949 14.2049 13.8425 13.5727 13.2406C12.9404 12.6388 12.2472 11.9793 12.0341 11.7729C11.8211 11.5666 11.4083 11.171 11.1208 10.8938C9.91704 9.73053 9.68378 9.50385 8.97031 8.80391C8.56114 8.39812 8.21274 8.06667 8.19245 8.06667ZM14.3099 15.0633C14.2795 15.0328 14.1543 15.1343 13.7857 15.4927C12.4973 16.7439 12.1727 17.0585 11.1042 18.0932C10.4718 18.7053 9.65691 19.4965 9.29505 19.8516C8.93323 20.2066 8.4461 20.6799 8.21615 20.9065C7.82051 21.292 7.79688 21.3225 7.80026 21.4409C7.80702 21.6066 7.89836 21.7553 8.06406 21.8737C8.24667 22.0022 8.45296 22.0293 8.5375 21.9414C8.57474 21.9042 8.91296 21.5558 9.29505 21.1669C10.3196 20.1187 10.8065 19.6181 12.6258 17.738C13.5354 16.798 14.3842 15.919 14.5161 15.787C14.7021 15.5943 14.746 15.5333 14.7122 15.4995C14.6818 15.469 14.6515 15.4793 14.5771 15.5503L14.4823 15.6414L14.1372 15.3102L14.2422 15.2052C14.3233 15.1275 14.3402 15.0937 14.3099 15.0633ZM16.1596 18.8776C15.7471 18.4346 15.2464 18.2488 14.6208 18.3164C13.789 18.4078 13.0857 19.2023 13.0823 20.0578C13.0823 20.6902 13.4577 21.3258 13.9987 21.6099C14.3132 21.7756 14.5262 21.8297 14.8576 21.8297C15.1923 21.8263 15.3717 21.7892 15.649 21.6505C16.2137 21.3732 16.5891 20.8118 16.6229 20.1862C16.6533 19.6655 16.5079 19.2597 16.1596 18.8776ZM21.5294 8.06667C21.5084 8.06744 21.2518 8.30053 20.9648 8.58412C19.903 9.62564 18.6688 10.8126 15.9297 13.4232C15.2568 14.0623 14.949 14.3769 14.9727 14.4005C14.9964 14.4241 15.0539 14.3936 15.1518 14.3057C15.3547 14.1265 16.4367 13.1019 16.9034 12.6487C17.1164 12.4424 17.6137 11.9691 18.0026 11.6005C18.3949 11.2285 18.973 10.6739 19.2875 10.3661C20.4767 9.21077 21.3014 8.42337 21.3333 8.41172C21.4145 8.38467 21.3538 8.49962 21.2219 8.62813C20.9412 8.90544 19.406 10.4779 18.2732 11.6513C17.1708 12.7943 16.8832 13.0952 16.3286 13.6802C16.004 14.0251 15.6421 14.4072 15.5237 14.5289C15.3513 14.7114 15.3209 14.7589 15.3581 14.7927C15.3987 14.8231 15.4324 14.8027 15.5339 14.6878C15.6049 14.6066 15.8078 14.3902 15.987 14.2042C16.1662 14.0182 16.6398 13.5245 17.0388 13.1052C18.3711 11.712 19.149 10.9072 20.3529 9.67292C21.5465 8.45562 21.6886 8.30333 21.6987 8.25599C21.7121 8.19846 21.5903 8.06667 21.5294 8.06667ZM16.1596 9.0388C15.7471 8.59581 15.2464 8.40997 14.6208 8.4776C13.789 8.56896 13.0857 9.3635 13.0823 10.219C13.0823 10.8514 13.4577 11.487 13.9987 11.7711C14.3132 11.9368 14.5262 11.9909 14.8576 11.9909C15.1923 11.9875 15.3717 11.9504 15.649 11.8117C16.2137 11.5344 16.5891 10.973 16.6229 10.3474C16.6533 9.8267 16.5079 9.42088 16.1596 9.0388Z" fill="#FEFEFE"/>
</svg>
