<svg width="30" height="30" viewBox="0 0 30 30" fill="none" xmlns="http://www.w3.org/2000/svg">
<path d="M19.7164 10.1354C19.7656 10.1354 19.7984 10.1685 19.7984 10.2096C19.7985 10.2509 19.8231 10.3495 19.8477 10.4154C19.8886 10.5142 19.864 10.5391 19.7656 10.4979C19.6017 10.432 19.5934 10.572 19.7573 10.712C19.8229 10.7696 19.8805 10.8603 19.8805 10.918C19.8806 10.9674 19.9542 11.0825 20.0443 11.1648C20.3066 11.4037 20.2329 12.0957 19.9049 12.4581C19.7902 12.5899 19.7574 12.5817 19.4294 12.3346C19.2327 12.1864 19.0197 11.9558 18.9458 11.8076C18.8802 11.6593 18.7325 11.4861 18.6177 11.412C18.5112 11.3378 18.3556 11.1815 18.2818 11.0745C18.1588 10.885 18.1588 10.8519 18.2818 10.6625C18.4375 10.4155 18.5441 10.4155 18.7245 10.6461L18.8719 10.819L19.1096 10.6544C19.2408 10.5638 19.4131 10.4648 19.4951 10.4401C19.5688 10.4072 19.6344 10.333 19.6344 10.2589C19.6344 10.193 19.6754 10.1354 19.7164 10.1354Z" fill="#FEFEFE"/>
<path fill-rule="evenodd" clip-rule="evenodd" d="M15 3C21.6274 3 27 8.37258 27 15C27 21.6274 21.6274 27 15 27C8.37258 27 3 21.6274 3 15C3 8.37258 8.37258 3 15 3ZM19.6344 8.44688C19.3311 8.2904 19.1753 8.29051 18.7654 8.47995C18.3883 8.65289 18.1587 8.92454 18.1586 9.21276C18.1586 9.3116 18.0684 9.49302 17.9536 9.60833C17.7324 9.83063 17.6258 9.83054 17.093 9.57526C16.8634 9.46819 16.5928 9.43535 15.8221 9.45182C14.2645 9.47653 13.8381 9.57528 13.1003 10.0612C12.7478 10.2918 12.3132 10.5965 12.1328 10.7448C11.9524 10.8848 11.5999 11.1074 11.3539 11.231C10.7636 11.5193 10.5422 11.7004 10.493 11.931C10.452 12.1451 10.5012 12.1533 10.7799 11.9885C11.0177 11.8485 11.321 11.8157 11.1081 11.9474C10.8949 12.0792 11.0915 12.1286 11.3948 12.0216C11.567 11.9557 11.813 11.7662 11.9523 11.5932C12.2557 11.2061 12.6492 10.9508 13.5018 10.5802L14.1578 10.3L15.0596 10.3826C15.5596 10.4237 15.9859 10.4813 16.0107 10.506C16.0353 10.5307 15.9943 10.7614 15.9206 11.0167C15.8468 11.2802 15.7402 11.791 15.6992 12.1534C15.6008 12.9111 15.5678 12.9606 14.625 13.6195C13.9528 14.0972 13.6495 14.5502 13.6495 15.0773C13.6495 15.3327 13.5265 15.5304 12.8297 16.4034C12.3789 16.9633 11.9773 17.4328 11.9443 17.4414C11.9115 17.4496 11.7803 17.4743 11.6409 17.5073C11.4687 17.5402 11.1244 17.8448 10.4849 18.512L9.57474 19.4674L9.05833 19.4922C8.38605 19.5334 8.24669 19.6488 8.37786 20.0771C8.75496 21.3289 8.96812 21.6666 9.3862 21.6667C9.68954 21.6667 9.78804 21.4772 9.59948 21.263C9.41911 21.0653 9.43542 20.95 9.67318 20.6617C9.78794 20.5299 9.87813 20.3569 9.87813 20.2828C9.87863 20.0189 11.8706 18.4792 12.7068 18.0839C13.3873 17.7708 14.8793 16.6011 15.1909 16.1398C15.3712 15.8763 15.4532 15.8269 15.6172 15.8516C15.732 15.8763 16.15 15.9176 16.5435 15.9505C16.937 15.9835 17.2568 16.0247 17.2568 16.0411C17.2547 16.0683 16.4449 17.0462 16.1828 17.3341C16.15 17.3753 15.9616 17.3259 15.7648 17.2271C15.5599 17.1365 15.363 17.0542 15.3138 17.0542C15.1252 17.0542 14.4775 19.2122 14.5841 19.5005C14.6579 19.6981 14.8383 19.6075 15.1089 19.2286C15.3958 18.8416 15.8056 18.5368 16.0516 18.5367C16.1417 18.5367 16.1911 18.4709 16.1911 18.3474C16.1911 18.2074 16.4697 17.9683 17.4617 17.2682C19.3719 15.9175 19.4705 15.794 19.1836 15.2422C19.0442 14.9621 18.7817 14.822 17.6503 14.3854C17.2076 14.2125 16.8469 14.056 16.8469 14.0313C16.8474 14.0142 17.0522 13.759 17.306 13.4711C17.6585 13.0758 17.8472 12.9275 18.1177 12.8534L18.4703 12.7547L19.2164 13.2654C19.6344 13.5453 20.036 13.7594 20.1099 13.743C20.1837 13.7265 20.3231 13.57 20.4133 13.3888C20.5526 13.117 20.5774 12.8699 20.5938 11.9062C20.6101 10.8026 20.61 10.7449 20.3969 10.3826C20.1263 9.91306 19.9623 9.78947 19.8065 9.91302C19.7492 9.96232 19.7902 9.86352 19.9049 9.69063C20.2165 9.23761 20.0935 8.68574 19.6344 8.44688Z" fill="#FEFEFE"/>
</svg>
