<svg width="30" height="30" viewBox="0 0 30 30" fill="none" xmlns="http://www.w3.org/2000/svg">
<path d="M15.2833 14.6773C15.2889 14.6704 15.3447 14.7365 15.4057 14.8229C15.5844 15.068 15.7964 15.2289 16.0924 15.3438L16.1844 15.3794L16.0771 15.3667C16.0184 15.359 15.9521 15.3461 15.9266 15.3359C15.8959 15.3257 15.8883 15.3283 15.901 15.3487C15.9113 15.364 15.9546 15.3896 16.0005 15.4023C16.0669 15.4202 16.0719 15.4253 16.0234 15.4279C15.9188 15.4329 15.6943 15.3054 15.5768 15.1753C15.5156 15.1063 15.4211 14.9683 15.3701 14.8688C15.3165 14.7693 15.2783 14.6826 15.2833 14.6773Z" fill="#FEFEFE"/>
<path d="M15.2091 11.2518C15.2168 11.2442 15.2424 11.303 15.2654 11.3846C15.3113 11.5377 15.3011 11.6525 15.2424 11.6526C15.222 11.6526 15.102 11.7242 14.9719 11.8109C14.7677 11.9513 14.7216 11.9692 14.5914 11.9794C14.4026 11.9922 14.308 11.946 14.012 11.6883C13.8895 11.5811 13.7416 11.4714 13.6854 11.4458C13.6268 11.4203 13.6012 11.3974 13.6266 11.3974C13.7057 11.3974 13.8282 11.4741 14.0401 11.6604C14.4408 12.0101 14.5863 12.015 15.0789 11.6883C15.2678 11.5632 15.2857 11.5225 15.2245 11.349C15.2092 11.303 15.2015 11.2595 15.2091 11.2518Z" fill="#FEFEFE"/>
<path fill-rule="evenodd" clip-rule="evenodd" d="M15 3C21.6274 3 27 8.37258 27 15C27 21.6274 21.6274 27 15 27C8.37258 27 3 21.6274 3 15C3 8.37258 8.37258 3 15 3ZM14.681 21.6125C14.6223 21.5436 14.6221 21.5438 14.4563 21.6102C14.3847 21.6382 14.2366 21.6687 14.132 21.6789C13.9509 21.6968 13.9355 21.7019 13.9023 21.7708C13.8768 21.827 13.8744 21.8653 13.8948 21.9367L13.9229 22.0286L13.8719 21.9648C13.8285 21.9138 13.8208 21.8805 13.8336 21.7938C13.8438 21.7147 13.8386 21.6841 13.8156 21.6841C13.8003 21.6841 13.7417 21.6764 13.6906 21.6688L13.5987 21.6534L13.5323 21.8602C13.4634 22.0771 13.448 22.289 13.4914 22.3758C13.5578 22.4983 13.7468 22.5291 14.0122 22.4602C14.2394 22.3989 14.4333 22.4091 14.7779 22.4984C15.1096 22.5852 15.2399 22.5926 15.393 22.5391C15.4797 22.5084 15.508 22.5084 15.6049 22.5391C15.7964 22.6054 15.9802 22.5697 16.044 22.4523C16.0848 22.3707 16.0745 22.3527 15.9596 22.294C15.9009 22.2634 15.8091 22.1946 15.7581 22.1385L15.6635 22.0362L15.5003 22.0542C15.3651 22.0695 15.3216 22.0644 15.2349 22.0211C15.1149 21.9598 14.7499 21.6891 14.681 21.6125ZM14.0247 20.2956C14.0145 20.3008 13.9993 20.3493 13.9891 20.4003C13.9813 20.4541 13.8919 20.7425 13.7924 21.0435C13.647 21.485 13.6191 21.5923 13.6471 21.6128C13.7092 21.6534 14.2522 21.6177 14.4409 21.5565C14.7267 21.4672 14.6578 21.3855 14.2724 21.3523L14.0401 21.3318H14.2927C14.5658 21.3343 14.5685 21.3318 14.5966 21.1786L14.612 21.0971L14.4536 21.0945C14.3669 21.0945 14.2494 21.0842 14.1932 21.074C14.109 21.0561 14.1346 21.051 14.3336 21.0484C14.6118 21.0433 14.6118 21.0384 14.3055 20.8776C14.211 20.8266 14.109 20.7601 14.0784 20.7294L14.0247 20.6682L14.3031 20.6732C14.4562 20.6732 14.571 20.6835 14.5531 20.6938C14.5377 20.704 14.451 20.7141 14.3617 20.7141C14.2137 20.7141 14.2035 20.7167 14.2341 20.7576C14.2546 20.7805 14.3566 20.8392 14.4612 20.8852L14.6526 20.9745L14.7036 20.9107C14.7317 20.8775 14.7982 20.7881 14.8492 20.7167L14.9438 20.5865L14.8747 20.5711C14.571 20.5047 14.2979 20.4207 14.1805 20.362C14.1039 20.3211 14.0324 20.293 14.0247 20.2956ZM15.1734 16.5305C14.9922 16.5279 14.9487 16.5356 14.9359 16.5688C14.9104 16.6377 14.9181 16.8828 14.9615 17.2299C15.0099 17.6357 15.0127 17.9088 14.9719 18.0594C14.9463 18.1538 14.8875 18.2255 14.6169 18.4935C14.28 18.8278 14.1755 18.9759 14.0964 19.2516C14.0377 19.4456 14.0197 19.706 14.0401 19.9867L14.0581 20.2341L14.188 20.293L14.3182 20.3542L14.4102 20.2802C14.5888 20.1398 14.7649 19.8717 14.8721 19.5781L14.9206 19.4505L14.9055 19.5654C14.885 19.7287 14.7727 19.9561 14.594 20.1909C14.5098 20.3032 14.4459 20.4028 14.451 20.4104C14.4566 20.4207 14.5713 20.4487 14.7036 20.4716L14.9464 20.5151L14.9974 20.4563C15.0228 20.4232 15.0458 20.3851 15.0484 20.3747C15.0484 20.362 15.1326 20.2699 15.2372 20.1703C15.5052 19.9074 15.6099 19.6701 15.6482 19.226C15.6686 18.9963 15.6508 18.981 15.5104 19.1112L15.4234 19.1953L15.4745 19.1188C15.5536 19.0039 15.6278 18.9452 15.6737 18.963C15.7783 19.0013 16.008 18.815 16.0846 18.6313C16.105 18.5802 16.1203 18.4526 16.1203 18.3148C16.1203 18.0417 16.1433 17.9777 16.3398 17.6995C16.419 17.5872 16.4983 17.4443 16.5161 17.3831L16.5518 17.2708L16.3271 17.0563C16.0361 16.7755 15.7605 16.6173 15.444 16.5458C15.4159 16.5382 15.2934 16.533 15.1734 16.5305ZM17.5294 15.5836C17.5192 15.5836 17.4502 15.637 17.3737 15.7034C17.2461 15.8131 17.2383 15.8286 17.251 15.9154C17.2562 15.969 17.3047 16.071 17.3557 16.1451C17.4578 16.2905 17.468 16.3646 17.4068 16.4794C17.3864 16.5228 17.3584 16.6403 17.3482 16.7398C17.3354 16.8419 17.3226 16.9416 17.3174 16.962C17.3124 16.9823 17.3227 16.9975 17.338 16.9924C17.3609 16.99 17.3711 17.0181 17.3711 17.0716C17.3711 17.1379 17.3864 17.1635 17.4323 17.1865C17.4731 17.2043 17.4988 17.2403 17.5039 17.2862C17.509 17.3371 17.5269 17.36 17.5651 17.3651C17.6033 17.3702 17.6162 17.3881 17.6086 17.4161C17.6035 17.4417 17.6213 17.4927 17.6518 17.531C17.8075 17.7275 18.1088 17.4597 18.1828 17.0641C18.1981 16.9875 18.239 16.8214 18.2747 16.6964C18.313 16.5662 18.3411 16.4079 18.3411 16.3211V16.168L18.2185 16.1169C17.9864 16.0174 17.874 15.9537 17.7643 15.8568L17.6544 15.7596L17.6135 15.8388C17.5906 15.8821 17.5804 15.9281 17.588 15.9409C17.5957 15.9562 17.5906 15.9664 17.5779 15.9664C17.537 15.9664 17.5447 15.8745 17.5906 15.7852C17.6263 15.7137 17.6263 15.7009 17.588 15.6448C17.5676 15.6117 17.5397 15.5837 17.5294 15.5836ZM15.5818 7.89036C15.495 7.77805 15.4644 7.80346 15.444 8.01276L15.4286 8.20156L15.2961 8.14818C15.1174 8.07926 14.8034 8.07396 14.6221 8.13776C14.4077 8.21178 14.257 8.42117 14.257 8.64323C14.257 8.67896 14.2315 8.73 14.2034 8.75807C14.155 8.80142 14.15 8.82708 14.1602 8.975C14.1678 9.06689 14.1908 9.17932 14.2138 9.22526C14.252 9.29921 14.2494 9.3223 14.1831 9.59271C14.0733 10.0343 14.0478 10.0702 13.693 10.231C13.5884 10.2795 13.4634 10.3534 13.4148 10.3943C13.3434 10.4555 13.2948 10.4734 13.1698 10.4836C12.8916 10.5091 12.6899 10.6649 12.5495 10.9635C12.45 11.1728 12.45 11.2035 12.5393 11.1831C12.5801 11.1729 12.5265 11.2086 12.4245 11.257C12.3071 11.3157 12.1717 11.4128 12.0594 11.5174C11.822 11.742 11.8118 11.7625 11.8909 11.8799C11.9623 11.9871 12.0618 12.1782 12.062 12.2065C12.0619 12.2166 12.0056 12.1402 11.9393 12.0357C11.8704 11.9311 11.7684 11.8034 11.7122 11.7523C11.6561 11.7013 11.6024 11.6321 11.5922 11.599C11.559 11.4689 11.5411 11.4663 11.4109 11.5479C11.2527 11.6474 11.2044 11.6501 11.3422 11.5531C11.4723 11.4562 11.5054 11.4076 11.4214 11.4331C11.304 11.4662 11.1815 11.4815 11.2018 11.4586C11.2148 11.4458 11.2836 11.4177 11.3549 11.3948L11.4875 11.3565L11.4826 11.2188C11.4775 11.1448 11.4723 11.081 11.4672 11.0758C11.4645 11.0707 11.4083 11.0861 11.3471 11.1065C11.2119 11.155 11.0333 11.137 10.8648 11.063C10.804 11.0377 10.7533 11.0149 10.75 11.0146C10.7372 11.0146 10.7908 11.4741 10.8367 11.7625C10.8648 11.9411 10.8878 12.0918 10.8878 12.0995C10.8883 12.135 11.0971 12.1045 11.2068 12.0484C11.3676 11.9719 11.4009 11.9436 11.4852 11.8211C11.5311 11.7497 11.5515 11.7369 11.5516 11.7701C11.5515 11.8492 11.4595 11.977 11.3523 12.0484C11.2604 12.1097 11.0029 12.1733 10.9568 12.1453C10.8955 12.107 10.995 12.4822 11.1073 12.7094C11.1991 12.888 11.3165 13.0742 11.388 13.1432C11.4161 13.1738 11.4774 13.1841 11.6177 13.1841H11.8091L11.9802 13.0464C12.0746 12.9723 12.2763 12.8268 12.432 12.7247C12.8021 12.4772 12.9348 12.3393 13.0599 12.0661C13.1134 11.9465 13.1669 11.8548 13.1747 11.862C13.1824 11.8722 13.1647 11.9257 13.1341 11.9844L13.0805 12.0891L13.1443 12.199C13.2208 12.3291 13.3178 12.3981 13.6776 12.569C13.8614 12.6583 13.9943 12.74 14.099 12.837C14.2853 13.0132 14.7677 13.6922 14.7677 13.7841C14.7678 13.8529 14.8111 13.8681 14.8698 13.8146C14.8901 13.7994 14.8747 13.8199 14.8365 13.8633L14.7625 13.9448L14.8161 14.0495C14.8468 14.1056 14.8826 14.1542 14.8953 14.1542C14.9081 14.154 14.9438 14.1081 14.9719 14.0495C15.0025 13.9908 15.0332 13.9499 15.0383 13.9576C15.0458 13.9653 15.0253 14.0214 14.9922 14.0826C14.936 14.1846 14.9336 14.2205 14.9336 14.6391C14.9336 15.1189 14.9564 15.2722 15.0661 15.4943C15.0993 15.5632 15.1581 15.655 15.1964 15.6958L15.2654 15.7698L15.1708 15.7138L15.0789 15.6576L15.0279 15.7292C14.8952 15.918 14.8084 16.1324 14.7982 16.3008C14.788 16.4641 14.8187 16.5792 14.8698 16.5792C14.8851 16.5791 14.8953 16.5559 14.8953 16.5305C14.8954 16.4616 15.0383 16.4411 15.3164 16.4768C15.7375 16.5304 16.0796 16.7092 16.419 17.0589L16.6029 17.2479L16.6693 17.0997C16.779 16.8573 16.904 16.4564 16.9602 16.1833C17.0239 15.8672 17.0623 15.5102 17.0344 15.4917C17.0242 15.484 17.0699 15.433 17.1388 15.3794C17.3226 15.2339 17.4656 15.022 17.287 15.1547C17.1874 15.2313 17.0546 15.3029 17.0112 15.3029C16.9935 15.3028 17.0293 15.2695 17.093 15.2313C17.2512 15.1292 17.4452 14.948 17.5703 14.7872C17.7439 14.5601 17.9352 14.1311 17.8203 14.2281C17.7922 14.251 17.7539 14.223 17.6315 14.093C17.2461 13.6795 17.0598 13.2454 17.0547 12.7503C17.0521 12.4108 17.0726 12.3266 17.1747 12.2755L17.2563 12.2346L17.1823 12.3112L17.1109 12.3904L17.1211 12.7427C17.1313 13.0412 17.1439 13.1255 17.2026 13.299C17.2945 13.572 17.4452 13.8172 17.6417 14.024C17.7973 14.1847 17.8078 14.1899 17.8435 14.144C17.892 14.0828 17.892 13.9831 17.8435 13.7841C17.795 13.5876 17.795 13.2914 17.8435 13.0872C17.8869 12.9035 17.9916 12.6711 18.0503 12.6201C18.0783 12.5972 18.0732 12.6151 18.0375 12.6763C18.0094 12.7248 17.9659 12.837 17.943 12.9289C17.8996 13.0999 17.8997 13.3348 17.9482 14.2893L17.9659 14.6188L18.0578 14.6773C18.1905 14.7641 18.3309 14.7974 18.5172 14.7872L18.6807 14.7794L18.724 14.6518C18.7852 14.4706 18.8799 14.292 19.0688 14.001C19.2959 13.6488 19.385 13.4649 19.431 13.2505C19.4667 13.0769 19.4591 12.7503 19.4182 12.7503C19.3797 12.7535 19.1655 13.1486 19.038 13.4521C18.9921 13.5642 18.9537 13.6383 18.9536 13.6156C18.9536 13.511 19.056 13.2607 19.2729 12.837C19.523 12.347 19.5613 12.2295 19.518 12.0688C19.4491 11.8135 19.0968 11.5711 18.7956 11.5685C18.622 11.5685 18.5555 11.5939 18.3156 11.7547C18.2391 11.8057 18.0247 11.9053 17.8435 11.9716C17.6597 12.038 17.4605 12.1197 17.3992 12.1529C17.338 12.186 17.2843 12.2143 17.2818 12.2143C17.279 12.2138 17.2612 12.1806 17.2435 12.1401C17.1976 12.0254 17.1568 12.0306 17.0547 12.1633C17.0036 12.2322 16.8862 12.3522 16.7969 12.4313L16.6336 12.5742L16.5799 12.4695C16.5519 12.4109 16.5188 12.2909 16.506 12.2016C16.4881 12.0408 16.4828 12.033 16.2914 11.7982C16.2557 11.7523 16.2533 11.7266 16.2737 11.6526C16.3349 11.4408 16.2736 11.1319 16.1307 10.9456C16.0951 10.8973 16.0697 10.8541 16.0745 10.8487C16.0796 10.841 16.1282 10.8947 16.1818 10.9661C16.2966 11.1192 16.3044 11.1192 16.6182 10.9635C16.9143 10.8129 17.1186 10.6342 17.3688 10.3049C17.5321 10.0931 17.6342 9.98324 17.7669 9.8888C18.0884 9.65661 18.1625 9.56214 18.1625 9.38099C18.1625 9.29676 18.1445 9.25834 18.0654 9.16901C18.0117 9.11026 17.8918 8.97001 17.7974 8.85521C17.6111 8.62805 17.4708 8.50278 17.2513 8.37005C17.0879 8.27306 17.0393 8.26301 17.0393 8.32682C17.0392 8.43914 16.8886 8.61252 16.7151 8.70182L16.6336 8.74271L16.682 8.82708C16.7076 8.87058 16.7764 9.03901 16.8326 9.19974C16.8912 9.36046 16.9602 9.53136 16.9883 9.57995C17.0623 9.70496 17.0343 9.7076 16.9323 9.58776L16.8427 9.48307L16.6617 9.54427C16.2866 9.67187 16.0899 9.80461 16.0031 9.99089C15.9776 10.0418 15.9546 10.0674 15.9495 10.0497C15.9342 10.0115 15.7017 10.0088 15.5818 10.0471C15.5333 10.0625 15.4491 10.1111 15.3956 10.1544L15.2961 10.231L15.3112 10.1313C15.3214 10.0777 15.3343 9.99353 15.3445 9.94505L15.3622 9.86068L15.2857 9.89896C15.2448 9.92193 15.1608 9.9807 15.1021 10.0292C15.0153 10.1006 14.9692 10.1211 14.8875 10.1211C14.668 10.1211 14.4893 9.97056 14.3974 9.71536C14.3412 9.552 14.3489 9.55456 14.4484 9.72813C14.6041 10.0038 14.7829 10.1109 14.9794 10.0471C15.0279 10.0293 15.1325 9.96036 15.2091 9.89401C15.2882 9.8251 15.3599 9.76376 15.3727 9.7612C15.3832 9.75549 15.4495 9.64353 15.5156 9.5112C15.6177 9.31722 15.638 9.25063 15.6354 9.15365C15.6329 9.08986 15.6329 9.00812 15.638 8.9724C15.6508 8.81671 15.6457 8.54632 15.6279 8.47734C15.61 8.41353 15.6125 8.40578 15.6534 8.42109C15.8423 8.49511 16.0847 8.45173 16.2174 8.31901C16.3221 8.21439 16.3171 8.15812 16.1971 8.09688C16.1078 8.05093 16.0362 8.05114 15.7427 8.09453C15.6381 8.1124 15.6354 8.10968 15.6354 8.03568C15.6354 7.9923 15.6124 7.92864 15.5818 7.89036ZM18.1036 14.7464C17.9428 14.6723 17.907 14.6774 17.907 14.7719C17.907 14.8715 17.7973 15.0986 17.6646 15.2721L17.5242 15.4583L17.5982 15.5656C17.7105 15.7315 17.8944 15.8873 18.068 15.9664C18.3436 16.0915 18.3308 16.0939 18.3487 15.8974C18.3563 15.8007 18.3665 15.709 18.3716 15.6883C18.3767 15.6704 18.3079 15.6116 18.2135 15.5529C17.9506 15.3946 17.8766 15.3028 18.1242 15.4432C18.3436 15.5682 18.4227 15.5911 18.3641 15.512C18.3462 15.489 18.308 15.4405 18.2773 15.4073L18.2263 15.3461L18.2797 15.3742C18.3078 15.3895 18.3462 15.4202 18.3667 15.4406C18.3845 15.4636 18.4075 15.4815 18.4177 15.4815C18.4333 15.4808 18.5453 15.2083 18.5453 15.1674C18.5453 15.1598 18.4738 15.1267 18.387 15.0961C18.2211 15.0348 18.2186 14.9989 18.3844 15.0448C18.5758 15.0984 18.6116 15.0857 18.6576 14.9531C18.7112 14.7949 18.7112 14.7897 18.6193 14.8229C18.5018 14.8637 18.2823 14.8306 18.1036 14.7464ZM11.0945 9.73828C11.0282 9.73829 11.0129 9.75622 10.9286 9.93229C10.8776 10.0395 10.8367 10.1415 10.8367 10.162C10.8368 10.2105 10.9492 10.2334 11.0104 10.2003C11.0818 10.162 11.1047 10.1645 11.069 10.2078C10.9975 10.292 10.8087 10.287 10.7602 10.1977C10.7398 10.1594 10.7525 10.1287 10.824 10.0445C10.9337 9.91436 10.9362 9.87865 10.8341 9.8276C10.7653 9.78937 10.7499 9.78928 10.6964 9.825C10.6581 9.85053 10.6299 9.90172 10.6172 9.97318C10.607 10.0343 10.5942 10.0675 10.5891 10.0497C10.5814 10.0344 10.5611 10.019 10.5432 10.019C10.4845 10.019 10.4667 10.0752 10.4667 10.2794V10.476L10.5688 10.4734C10.6249 10.4734 10.709 10.4582 10.7576 10.4378C10.9056 10.3765 10.9082 10.3994 10.7602 10.4734L10.6198 10.5422L10.6299 10.6573C10.6427 10.8231 10.7168 10.9533 10.8367 11.0146C10.8902 11.0426 10.9489 11.0655 10.9643 11.0656C10.9771 11.0656 10.9898 11.0094 10.9898 10.9354C10.9898 10.864 11.0027 10.7822 11.018 10.7516C11.0563 10.6775 11.1712 10.5549 11.2044 10.5549C11.217 10.5551 11.1992 10.5858 11.1635 10.624C11.0436 10.749 11.0028 10.9533 11.0742 11.0503C11.1074 11.0962 11.1176 11.0962 11.3115 11.0529C11.4722 11.0171 11.5285 10.9915 11.5974 10.9227C11.6791 10.841 11.6841 10.8256 11.6714 10.7185C11.656 10.5756 11.5693 10.4607 11.3549 10.3076L11.1966 10.1951L11.1789 10.2615C11.1585 10.3457 11.2018 10.4505 11.3013 10.5526C11.388 10.6419 11.3804 10.6546 11.2784 10.5883C11.1584 10.5092 11.0971 10.2437 11.1813 10.1721C11.2144 10.1441 11.2324 10.1493 11.2911 10.2055C11.3575 10.2692 11.3652 10.2691 11.4315 10.2359C11.4697 10.2181 11.5004 10.2105 11.5005 10.2232C11.5005 10.2359 11.4775 10.2538 11.4495 10.2615C11.4214 10.2691 11.3984 10.2872 11.3984 10.2974C11.399 10.3231 11.5511 10.4093 11.5693 10.3943C11.5769 10.3866 11.5897 10.3075 11.5948 10.2182C11.6076 10.0702 11.6024 10.047 11.5438 9.97813L11.4773 9.90417L11.3932 9.98594C11.2886 10.088 11.2479 10.0957 11.3219 10.0013L11.3779 9.92969L11.2732 9.83516C11.2043 9.76886 11.1481 9.73828 11.0945 9.73828ZM16.4471 7.91068C16.4267 8.0638 16.3858 8.16093 16.2659 8.32682C16.2226 8.38797 16.1947 8.43884 16.1997 8.44401C16.2049 8.44914 16.2508 8.47746 16.3018 8.50807L16.3961 8.56406L16.4344 8.40573C16.4548 8.31651 16.4804 8.22225 16.4906 8.19661C16.5085 8.15833 16.5033 8.15317 16.4753 8.16849C16.4472 8.18631 16.4499 8.17866 16.4805 8.13021C16.557 8.01535 16.5774 8.04851 16.5263 8.20677C16.5008 8.29355 16.4779 8.40844 16.4779 8.46458C16.4779 8.56153 16.478 8.56166 16.5469 8.53359C16.5877 8.51826 16.6617 8.47207 16.7128 8.43125C16.7662 8.39058 16.8094 8.36771 16.8096 8.38021C16.8096 8.41341 16.677 8.52832 16.5826 8.57682C16.4958 8.62021 16.4958 8.62031 16.5469 8.67135C16.5978 8.72232 16.598 8.72232 16.7 8.66875C16.8633 8.58707 16.9783 8.43891 17.0242 8.2526C17.0369 8.19657 17.0292 8.18118 16.9833 8.16589C16.9527 8.15823 16.8684 8.09448 16.7995 8.02813C16.728 7.96178 16.6234 7.87502 16.5672 7.83672L16.4651 7.76771L16.4471 7.91068ZM16.1026 7.5099C16.0949 7.49969 16.0616 7.5149 16.031 7.54297C16.0004 7.57103 15.9571 7.59425 15.9341 7.59427C15.9111 7.59427 15.8906 7.60953 15.8906 7.62995C15.8905 7.65039 15.8625 7.68863 15.8268 7.71667C15.7911 7.74474 15.763 7.78557 15.763 7.80599C15.763 7.82641 15.7452 7.85714 15.7247 7.875C15.7044 7.89291 15.6891 7.93884 15.6917 7.97708L15.6966 8.04583L15.9315 8.03307C16.1433 8.02287 16.1791 8.0281 16.2633 8.07656C16.3858 8.15058 16.4063 8.12246 16.3961 7.89531C16.3884 7.74739 16.3782 7.71414 16.312 7.64531C16.2226 7.55087 16.1638 7.54816 16.0464 7.6375L15.9544 7.70391L16.0388 7.61458C16.0847 7.56614 16.1127 7.52017 16.1026 7.5099ZM15.8398 7.28021C15.7224 7.23682 15.4313 7.30582 15.4313 7.37474C15.4311 7.39271 15.3903 7.44355 15.3419 7.49193C15.2934 7.54042 15.2526 7.60192 15.2526 7.63255C15.2525 7.66062 15.2296 7.69883 15.2016 7.71667C15.0842 7.78815 15.1812 8.00252 15.3292 8.0026C15.4006 8.0026 15.4057 7.99744 15.4057 7.90313C15.4057 7.77552 15.4338 7.76023 15.5461 7.8138C15.6405 7.85719 15.7122 7.84671 15.7122 7.78802C15.7124 7.77011 15.7403 7.73438 15.7734 7.71146C15.8091 7.69103 15.8424 7.65019 15.8526 7.62214C15.8603 7.59664 15.8986 7.56853 15.9419 7.55833C16.0006 7.54812 16.0185 7.53028 16.0185 7.48438C16.0185 7.42568 15.9139 7.30834 15.8398 7.28021Z" fill="#FEFEFE"/>
</svg>
