<svg width="30" height="30" viewBox="0 0 30 30" fill="none" xmlns="http://www.w3.org/2000/svg">
<path d="M11.676 11.6599L11.8023 11.7135L12.1557 11.8076L12.2695 11.8344L12.282 11.888V12.3172L12.3201 12.6659L12.4083 13.0281L12.5346 13.3904L12.7367 13.8732L12.9008 14.2891L12.9133 14.3831H9.63073L9.60547 14.2354L9.54219 13.7258L9.46641 13.1354L9.39063 12.6122L9.35286 12.4112V12.3708L9.58021 12.2367L9.78203 12.0758L9.93359 11.9417L9.98412 11.9685L10.0599 12.0758L10.1987 12.2367L10.2997 12.3307L10.4513 12.4513L10.6534 12.5854L10.8427 12.6794L10.9438 12.6659L11.0573 12.5854L11.1836 12.438L11.3352 12.2099L11.4487 11.9953L11.5372 11.7672L11.5878 11.6466L11.6003 11.6331L11.676 11.6599Z" fill="#FEFEFE"/>
<path d="M15.5521 9.33932L15.931 9.40651L16.1833 9.48698L16.4487 9.60781L16.6633 9.72839L16.9156 9.91615L17.0924 10.0771L17.244 10.238L17.3828 10.426L17.4839 10.5734L17.6102 10.8016L17.7112 11.0294L17.7742 11.2039L17.85 11.4857L17.9133 11.9552V12.0221L17.8122 12.1563L17.7112 12.3307L17.5724 12.6125L17.4586 12.9208L17.3576 13.2563L17.2693 13.6185L17.2063 13.9L17.143 14.2622L17.1052 14.3831H15.5521L15.5396 14.1818L15.6026 14.1148L15.8424 13.9268L16.0193 13.7927L16.2466 13.6185L16.4487 13.4576L16.4865 13.3771V13.2294L16.4359 13.1354L16.3602 13.0818H16.1961L16.0698 13.1622L15.8299 13.3503L15.6026 13.5245L15.5521 13.538V12.7466L15.6531 12.6526L15.8677 12.4917L16.1078 12.3039L16.3224 12.143L16.701 11.8479L16.7391 11.794L16.7516 11.6466L16.7138 11.5393L16.638 11.4721L16.5875 11.4589H16.4865L16.3854 11.499L16.2214 11.6331L16.0068 11.794L15.7794 11.9685L15.5648 12.1294H15.5521V11.2979L15.6531 11.2039L15.8299 11.0698L16.0573 10.8953L16.1203 10.8016L16.1328 10.7612V10.6674L16.0826 10.5602L16.0068 10.493L15.893 10.4797L15.7794 10.5198L15.6406 10.6271L15.5773 10.6807H15.5521L15.5396 10.1307L15.5016 10.0102L15.4258 9.94297L15.2997 9.91615L15.1859 9.95651L15.1102 10.0503L15.0977 10.0771L15.0849 10.6674H15.0471L14.8831 10.5333L14.8198 10.493L14.7188 10.4797L14.6052 10.5065L14.5294 10.6003L14.5042 10.6674V10.7747L14.5674 10.882L14.7315 11.0161L14.8578 11.1102L15.0471 11.2576L15.0849 11.2979V12.1161L15.0344 12.1026L14.8578 11.9685L14.6305 11.794L14.4536 11.6599L14.2266 11.4857L14.1508 11.4589H14.0497L13.9612 11.499L13.9107 11.5661L13.8854 11.6331V11.7271L13.9359 11.8479L14.1508 12.0221L14.3654 12.1831L14.643 12.3977L14.8703 12.5721L15.0471 12.7063L15.0849 12.7466V13.538H15.0471L14.8451 13.3771L14.4917 13.1086L14.4284 13.0818H14.2768L14.1885 13.149L14.1508 13.2294V13.3771L14.2138 13.4844L14.4159 13.6453L14.6305 13.8063L14.8578 13.9805L15.0596 14.1417L15.0849 14.1685V14.3695L15.0724 14.3831H13.4185L13.368 14.2622L13.2164 13.8464L13.0143 13.3635L12.8755 13.0013L12.7997 12.7466L12.7365 12.4112L12.724 12.3039V11.8612L12.7745 11.5393L12.825 11.3112L12.9133 11.043L13.0396 10.7612L13.1659 10.5466L13.3174 10.332L13.469 10.1576L13.6203 9.99661L13.8352 9.8224L14.0497 9.67474L14.3401 9.52708L14.643 9.41979L14.9714 9.35286L15.2617 9.32604L15.5521 9.33932Z" fill="#FEFEFE"/>
<path d="M19.2391 12.049L19.4664 12.0893L19.7315 12.1831L20.0219 12.344L20.1987 12.4781L20.3503 12.6258L20.4766 12.7734L20.5901 12.9612L20.6531 13.0953L20.7164 13.2964L20.7289 13.3635V13.6318L20.6911 13.7794L20.5901 14.0477L20.4513 14.3294L20.4133 14.3831H17.5977L17.5852 14.3294L17.6987 13.7391L17.8125 13.2964L17.9638 12.8404L18.0901 12.5721L18.2417 12.344L18.3805 12.2234L18.5826 12.1161L18.7846 12.0625L18.8729 12.049H19.2391Z" fill="#FEFEFE"/>
<path fill-rule="evenodd" clip-rule="evenodd" d="M15 3C21.6274 3 27 8.37258 27 15C27 21.6274 21.6274 27 15 27C8.37258 27 3 21.6274 3 15C3 8.37258 8.37258 3 15 3ZM10.4135 8.34688L10.0096 8.42734L9.84531 8.46745L9.73177 8.54792L9.64349 8.65521L9.59297 8.80287V8.95026L9.60547 9.05755L9.65599 9.33932L9.76953 10.037V10.1576L9.68125 10.2247L9.51719 10.3589L9.40339 10.4794L9.28984 10.6138L9.1763 10.7747L9.07526 10.949L8.96146 11.2172L8.87318 11.5393L8.84792 11.7404V12.1026L8.88594 12.3844L8.96146 12.8672L9.05 13.4977L9.13828 14.1951L9.16354 14.3695L8.64583 14.3831L8.51979 14.3964L8.40599 14.4232L8.21667 14.5172L8.09036 14.6245L7.95156 14.7854L7.85052 14.9865L7.8 15.2146V15.4695L7.8125 15.55L7.86302 15.7242L7.96406 15.8987L8.07786 16.0328L8.22917 16.1536L8.35547 16.2206L8.36823 18.5547L8.39349 18.8901L8.44401 19.2253L8.50703 19.4802L8.59531 19.7352L8.68385 19.9362L8.81016 20.1776L8.97422 20.4326L9.10052 20.5935L9.1888 20.7008L9.36563 20.8753L9.56771 21.0497L9.73177 21.1703L9.94635 21.3044L10.2495 21.4521L10.5523 21.5594L10.868 21.6263L11.0576 21.6531L11.4615 21.6667H18.1026L18.7971 21.6531L18.9234 21.6398L19.0497 21.613L19.3779 21.5326L19.6557 21.4253L19.9461 21.2776L20.1354 21.157L20.2995 21.0362L20.4763 20.8885L20.7036 20.6471L20.8424 20.4729L20.9688 20.2984L21.0951 20.0839L21.2214 19.8156L21.3096 19.5742L21.3727 19.3594L21.4484 18.9974L21.4737 18.6484V16.2206H21.499L21.638 16.1401L21.7768 16.0328L21.9156 15.8586L22.0042 15.6706L22.0547 15.4828V15.1878L22.0294 15.0805L21.9536 14.8792L21.8398 14.7049L21.6885 14.5573L21.537 14.4635L21.3979 14.4099L21.2086 14.3831H20.9563L21.0065 14.2487L21.1076 13.994L21.1961 13.6453V13.3635L21.1833 13.2964L21.1076 12.988L20.9815 12.7063L20.9057 12.5854L20.893 12.5185L20.994 12.4245L21.1708 12.2635L21.2719 12.1698L21.4484 11.9953L21.5875 11.8745L21.7391 11.7271L21.8779 11.6063L22.0672 11.4185L22.1555 11.2979L22.2188 11.1635L22.2693 10.949V10.7612L22.244 10.6271L22.206 10.5063L22.1302 10.3721L22.0419 10.2648L21.9284 10.1711L21.7263 10.0638L21.6128 10.037H21.4107V9.99661L21.3727 9.90286L21.2971 9.76849L21.1581 9.62109L20.994 9.5138L20.7919 9.46016H20.5773L20.3628 9.5138V9.48698L20.2995 9.40651L20.1734 9.29922L20.0091 9.20521L19.8198 9.15156H19.6305L19.5672 9.1651L19.3779 9.24557L19.2138 9.36615V9.39297H19.1885L19.1633 9.43333L19.075 9.55391L18.9865 9.76849L18.9612 9.92969L18.9234 11.5526L18.7591 11.5661L18.3552 11.6867L18.3427 11.593L18.2794 11.2844L18.2036 11.0161L18.1026 10.7479L17.9638 10.4661L17.825 10.2247L17.6482 9.98333L17.5599 9.87604L17.4714 9.78203L17.3451 9.6612L17.181 9.5138L17.0042 9.37969L16.8276 9.25885L16.4865 9.08464L16.2214 8.97708L15.8552 8.88333L15.4638 8.84297H15.1734L14.9841 8.85651L14.7948 8.88333L14.4664 8.9638L14.2771 9.03073L14.0625 9.12474L13.8604 9.23203L13.6331 9.37969L13.5068 9.47344L13.3302 9.62109L13.1786 9.76849L13.0901 9.87604L12.9513 10.037L12.7997 10.2516L12.6484 10.5063L12.5346 10.7612L12.4969 10.882L12.4589 10.8552L12.3201 10.6406L12.1938 10.493L12.0297 10.332L11.8656 10.1979L11.6888 10.0906L11.4362 9.96979L11.1711 9.88932L11.1586 9.84922L11.1206 9.59427L11.0323 9.07109L10.9565 8.64193L10.8932 8.50781L10.7672 8.38698L10.6281 8.33333H10.5146L10.4135 8.34688Z" fill="#FEFEFE"/>
</svg>
