<svg width="15" height="15" viewBox="0 0 15 15" fill="none" xmlns="http://www.w3.org/2000/svg">
<path d="M6.94567 9.38742L5.8665 10.4666C5.639 10.6941 5.27734 10.6941 5.044 10.4724C4.97984 10.4083 4.91567 10.3499 4.8515 10.2858C4.25067 9.67908 3.70817 9.04325 3.224 8.37825C2.74567 7.71325 2.36067 7.04825 2.08067 6.38909C1.8065 5.72409 1.6665 5.08825 1.6665 4.48159C1.6665 4.08492 1.7365 3.70575 1.8765 3.35575C2.0165 2.99992 2.23817 2.67325 2.54734 2.38159C2.92067 2.01409 3.329 1.83325 3.76067 1.83325C3.924 1.83325 4.08734 1.86825 4.23317 1.93825C4.38484 2.00825 4.519 2.11325 4.624 2.26492L5.97734 4.17242C6.08234 4.31825 6.15817 4.45242 6.21067 4.58075C6.26317 4.70325 6.29234 4.82575 6.29234 4.93659C6.29234 5.07659 6.2515 5.21658 6.16984 5.35075C6.094 5.48492 5.98317 5.62492 5.84317 5.76492L5.39984 6.22575C5.33567 6.28992 5.3065 6.36575 5.3065 6.45909C5.3065 6.50575 5.31234 6.54659 5.324 6.59325C5.3415 6.63992 5.359 6.67492 5.37067 6.70992C5.47567 6.90242 5.6565 7.15325 5.91317 7.45659C6.17567 7.75992 6.45567 8.06909 6.759 8.37825C6.81734 8.43659 6.8815 8.49492 6.93984 8.55325C7.17317 8.78075 7.179 9.15409 6.94567 9.38742Z" fill="#FEFEFE"/>
<path d="M13.3159 11.3589C13.3159 11.5223 13.2868 11.6914 13.2284 11.8548C13.2109 11.9014 13.1934 11.9481 13.1701 11.9948C13.0709 12.2048 12.9426 12.4031 12.7734 12.5898C12.4876 12.9048 12.1726 13.1323 11.8168 13.2781C11.8109 13.2781 11.8051 13.2839 11.7993 13.2839C11.4551 13.4239 11.0818 13.4998 10.6793 13.4998C10.0843 13.4998 9.44843 13.3598 8.7776 13.0739C8.10676 12.7881 7.43593 12.4031 6.77093 11.9189C6.54343 11.7498 6.31593 11.5806 6.1001 11.3998L8.0076 9.49228C8.17093 9.61478 8.31676 9.70811 8.43926 9.77228C8.46843 9.78395 8.50343 9.80145 8.54426 9.81895C8.59093 9.83645 8.6376 9.84228 8.6901 9.84228C8.78926 9.84228 8.8651 9.80728 8.92926 9.74311L9.3726 9.30561C9.51843 9.15978 9.65843 9.04895 9.7926 8.97895C9.92676 8.89728 10.0609 8.85645 10.2068 8.85645C10.3176 8.85645 10.4343 8.87978 10.5626 8.93228C10.6909 8.98478 10.8251 9.06061 10.9709 9.15978L12.9018 10.5306C13.0534 10.6356 13.1584 10.7581 13.2226 10.9039C13.2809 11.0498 13.3159 11.1956 13.3159 11.3589Z" fill="#FEFEFE"/>
</svg>
