<svg width="15" height="15" viewBox="0 0 15 15" fill="none" xmlns="http://www.w3.org/2000/svg">
<g clip-path="url(#clip0_316_2917)">
<path d="M4.11725 12.9165H1.57756V4.73788H4.11725V12.9165ZM2.84588 3.62225C2.03388 3.62225 1.375 2.94938 1.375 2.13738C1.375 1.32538 2.03344 0.666504 2.84588 0.666504C3.65831 0.666504 4.31675 1.32494 4.31675 2.13738C4.31675 2.94938 3.65788 3.62225 2.84588 3.62225ZM13.6224 12.9165H11.0884V8.93525C11.0884 7.98632 11.0691 6.76963 9.768 6.76963C8.44763 6.76963 8.24506 7.80038 8.24506 8.867V12.9165H5.708V4.73788H8.14356V5.8535H8.179C8.51806 5.21082 9.34625 4.53269 10.5818 4.53269C13.1521 4.53269 13.6246 6.22538 13.6246 8.42382V12.9165H13.6224Z" fill="#FEFEFE"/>
</g>
<defs>
<clipPath id="clip0_316_2917">
<rect width="14" height="14" fill="white" transform="translate(0.5 0.666504)"/>
</clipPath>
</defs>
</svg>
