<svg width="15" height="15" viewBox="0 0 15 15" fill="none" xmlns="http://www.w3.org/2000/svg">
<path d="M10.4165 2.70825H4.58317C2.83317 2.70825 1.6665 3.58325 1.6665 5.62492V9.70825C1.6665 11.7499 2.83317 12.6249 4.58317 12.6249H10.4165C12.1665 12.6249 13.3332 11.7499 13.3332 9.70825V5.62492C13.3332 3.58325 12.1665 2.70825 10.4165 2.70825ZM10.6907 6.26075L8.86484 7.71909C8.47984 8.02825 7.98984 8.17992 7.49984 8.17992C7.00984 8.17992 6.514 8.02825 6.13484 7.71909L4.309 6.26075C4.12234 6.10909 4.09317 5.82909 4.239 5.64242C4.39067 5.45575 4.66484 5.42075 4.8515 5.57242L6.67734 7.03075C7.12067 7.38659 7.87317 7.38659 8.3165 7.03075L10.1423 5.57242C10.329 5.42075 10.609 5.44992 10.7548 5.64242C10.9065 5.82909 10.8773 6.10909 10.6907 6.26075Z" fill="#FEFEFE"/>
</svg>
