<svg width="30" height="30" viewBox="0 0 30 30" fill="none" xmlns="http://www.w3.org/2000/svg">
<path d="M14.5 15C14.5 13.1591 15.9551 11.6666 17.75 11.6666C19.5449 11.6666 21 13.1591 21 15C21 16.8409 19.5449 18.3333 17.75 18.3333C15.9551 18.3333 14.5 16.8409 14.5 15Z" fill="#1ABCFE"/>
<path d="M8 21.6666C8 19.8257 9.45507 18.3333 11.25 18.3333H14.5V21.6666C14.5 23.5076 13.0449 25 11.25 25C9.45507 25 8 23.5076 8 21.6666Z" fill="#0ACF83"/>
<path d="M14.5 5V11.6666H17.75C19.5449 11.6666 21 10.1743 21 8.33333C21 6.49239 19.5449 5 17.75 5H14.5Z" fill="#FF7262"/>
<path d="M8 8.33333C8 10.1743 9.45507 11.6666 11.25 11.6666H14.5V5L11.25 5C9.45507 5 8 6.49238 8 8.33333Z" fill="#F24E1E"/>
<path d="M8 15C8 16.8409 9.45507 18.3333 11.25 18.3333H14.5L14.5 11.6666H11.25C9.45507 11.6666 8 13.1591 8 15Z" fill="#A259FF"/>
</svg>
