<svg width="30" height="30" viewBox="0 0 30 30" fill="none" xmlns="http://www.w3.org/2000/svg">
<path d="M24.6229 14.1091L15.8906 5.37717C15.3881 4.87428 14.5724 4.87428 14.0692 5.37717L12.256 7.19049L14.5562 9.49077C15.0907 9.31014 15.7037 9.43131 16.1298 9.85741C16.5579 10.2863 16.6782 10.9045 16.4932 11.4407L18.71 13.6576C19.2464 13.4729 19.8652 13.5924 20.2935 14.0215C20.8922 14.6199 20.8922 15.5899 20.2935 16.1887C19.6947 16.7876 18.7248 16.7876 18.1256 16.1887C17.6753 15.7379 17.5641 15.0766 17.7921 14.5218L15.7247 12.4544L15.7245 17.8949C15.8743 17.969 16.0112 18.0669 16.1298 18.1848C16.7285 18.7832 16.7285 19.7532 16.1298 20.3525C15.531 20.9511 14.5606 20.9511 13.9626 20.3525C13.3639 19.7532 13.3639 18.7833 13.9626 18.1848C14.1061 18.0413 14.2766 17.9276 14.4642 17.8504V12.3592C14.2763 12.2825 14.1057 12.1687 13.9626 12.0247C13.509 11.5717 13.3999 10.9062 13.6324 10.3492L11.3649 8.08144L5.37734 14.0687C4.87422 14.572 4.87422 15.3878 5.37734 15.8907L14.1097 24.6228C14.6124 25.1257 15.4279 25.1257 15.9313 24.6228L24.6228 15.9313C25.1257 15.4281 25.1258 14.612 24.6229 14.1091Z" fill="#DE4C36"/>
</svg>
