<svg width="30" height="30" viewBox="0 0 30 30" fill="none" xmlns="http://www.w3.org/2000/svg">
<path d="M22.419 20.9893C22.2803 20.837 22.2165 20.5553 22.1458 20.2546C22.0765 19.9553 21.9974 19.6329 21.7464 19.4247V19.4233C21.6548 19.3455 21.5501 19.2838 21.4371 19.241C21.7866 18.2274 21.6493 17.2179 21.2984 16.3063C20.8656 15.1865 20.1125 14.211 19.5369 13.5443C18.8934 12.747 18.2637 11.9906 18.2748 10.8735C18.2942 9.16739 18.4662 6.00408 15.4066 6C15.2818 6 15.1528 6.00544 15.0182 6.01633C11.598 6.28572 12.5051 9.82999 12.4538 11.0164C12.3914 11.8844 12.2124 12.5674 11.6036 13.4164C10.8893 14.2505 9.88374 15.5988 9.40663 17.0042C9.18194 17.6668 9.07376 18.343 9.17362 18.9825C9.14172 19.0097 9.1126 19.0383 9.08486 19.0682C8.87543 19.2873 8.72009 19.5539 8.54672 19.7335C8.38583 19.8914 8.1556 19.9512 7.90317 20.0397C7.64936 20.1295 7.37197 20.2601 7.20415 20.5771V20.5784C7.12969 20.721 7.09297 20.8796 7.09735 21.0397C7.09735 21.1866 7.11954 21.3349 7.14173 21.4778C7.18889 21.7771 7.23605 22.0587 7.17363 22.2492C6.97391 22.7866 6.94756 23.1567 7.08903 23.4261C7.2305 23.6969 7.51899 23.8152 7.84769 23.8819C8.50372 24.018 9.39276 23.9839 10.0932 24.3472C10.8421 24.7323 11.6036 24.8683 12.2097 24.7336C12.4216 24.6928 12.6207 24.6035 12.7908 24.473C12.961 24.3425 13.0974 24.1745 13.1889 23.9826C13.6632 23.9799 14.1833 23.7839 15.0169 23.7377C15.5827 23.6941 16.2901 23.935 17.1015 23.8914C17.1225 23.9779 17.1542 24.0615 17.1958 24.1404L17.1972 24.1418C17.512 24.7608 18.0987 25.0425 18.7228 24.9948C19.3469 24.9459 20.0099 24.5853 20.5466 23.9581C21.0598 23.3486 21.9086 23.0969 22.4717 22.7635C22.7533 22.5962 22.9821 22.388 22.9988 22.0846C23.0168 21.7825 22.8351 21.4438 22.419 20.9893Z" fill="#202020"/>
<path d="M22.7422 22.071C22.7325 22.2574 22.5938 22.3975 22.34 22.5472C21.8296 22.8492 20.9267 23.1105 20.3511 23.7962C19.849 24.3812 19.2387 24.701 18.7006 24.7431C18.1639 24.784 17.7006 24.5663 17.426 24.0275V24.0248C17.2554 23.7077 17.3261 23.2084 17.469 22.6819C17.6119 22.1553 17.8171 21.6138 17.8449 21.1744C17.8726 20.6097 17.9059 20.1172 18.003 19.7376C18.1001 19.3567 18.2512 19.1009 18.5203 18.9553C18.5327 18.9487 18.5452 18.9424 18.5578 18.9362C18.5883 19.4247 18.8351 19.9227 19.2706 20.0301C19.7464 20.1526 20.4329 19.7526 20.7228 19.4247L20.892 19.4192C21.1472 19.4124 21.3594 19.4274 21.5785 19.6138C21.7464 19.7526 21.8268 20.0179 21.8962 20.3118C21.9655 20.607 22.021 20.9281 22.2276 21.1567C22.6257 21.5921 22.7547 21.8832 22.7422 22.071ZM13.0626 23.452V23.456C13.0155 24.0479 12.6743 24.3703 12.1528 24.4873C11.6299 24.6044 10.9212 24.4873 10.2138 24.1254C9.43021 23.7173 8.49818 23.7581 7.90179 23.6356C7.6022 23.5744 7.40664 23.4819 7.31788 23.3118C7.22911 23.1404 7.22634 22.8424 7.41635 22.3322V22.3309L7.41774 22.3281C7.51205 22.0438 7.4427 21.7322 7.39693 21.4397C7.35116 21.1485 7.32897 20.8819 7.43022 20.6968L7.43161 20.6955C7.56198 20.4492 7.75338 20.3608 7.99055 20.2778C8.22633 20.1934 8.50788 20.1281 8.7298 19.9104L8.73118 19.909C8.93645 19.6954 9.09318 19.4288 9.27348 19.2397C9.42605 19.0805 9.57861 18.9743 9.80746 18.973H9.8144C9.85761 18.9734 9.90073 18.977 9.94338 18.9839C10.2485 19.0288 10.5134 19.2383 10.77 19.5784L11.5093 20.8995V20.9009C11.7062 21.3036 12.1209 21.7472 12.4732 22.1989C12.8255 22.6519 13.0973 23.105 13.0626 23.452Z" fill="#F8BF11"/>
<path d="M16.7492 11.132C16.6895 11.0178 16.5689 10.9089 16.3608 10.8259C15.9309 10.645 15.745 10.6327 15.5051 10.4803C15.1167 10.2341 14.7936 10.1484 14.5259 10.1484C14.3974 10.149 14.2699 10.1706 14.1486 10.2123C13.8213 10.3212 13.6049 10.5524 13.469 10.6776C13.4413 10.7035 13.408 10.7252 13.3248 10.7865C13.2416 10.845 13.1167 10.9361 12.9364 11.0695C12.7742 11.1865 12.7228 11.3416 12.7783 11.5212C12.8338 11.7008 13.0099 11.9089 13.3331 12.0885C13.5342 12.2042 13.6729 12.3606 13.831 12.4844C13.9104 12.5492 13.9987 12.6028 14.0931 12.6436C14.193 12.6858 14.3095 12.7144 14.4538 12.7225C14.7977 12.743 15.0501 12.6409 15.2721 12.5171C15.494 12.3919 15.6826 12.2395 15.899 12.1702C16.3428 12.0341 16.6604 11.7606 16.7603 11.4994C16.7855 11.441 16.7975 11.3779 16.7956 11.3145C16.7937 11.2511 16.7778 11.1889 16.7492 11.132Z" fill="#D6A312"/>
<path d="M15.623 11.7742C15.2693 11.9552 14.8574 12.1742 14.4177 12.1742C13.9794 12.1742 13.6327 11.9756 13.3844 11.781C13.2596 11.6858 13.1583 11.5878 13.0821 11.5184C12.9489 11.4164 12.9656 11.2722 13.0196 11.2763C13.1112 11.2872 13.1251 11.4055 13.1819 11.4586C13.2596 11.5293 13.3567 11.6219 13.4746 11.713C13.7103 11.8967 14.0252 12.0749 14.4177 12.0749C14.8116 12.0749 15.2693 11.8491 15.5495 11.694C15.709 11.6069 15.9101 11.4504 16.0751 11.3321C16.1999 11.2409 16.1958 11.132 16.2998 11.1443C16.4038 11.1565 16.3275 11.2654 16.1819 11.3892C16.0363 11.5144 15.8074 11.6804 15.623 11.7742Z" fill="#202020"/>
<path d="M21.0307 19.1675C20.9826 19.1661 20.9345 19.1661 20.8865 19.1675H20.8726C20.9946 18.7907 20.7256 18.5145 20.0113 18.1975C19.2706 17.8777 18.6798 17.909 18.5799 18.558C18.573 18.592 18.5675 18.626 18.5647 18.6614C18.5073 18.6814 18.4516 18.706 18.3983 18.7349C18.0487 18.9213 17.8587 19.2601 17.7533 19.6764C17.6479 20.0914 17.6174 20.5934 17.5883 21.1594C17.5702 21.4424 17.451 21.8261 17.3303 22.2343C16.1167 23.0832 14.4316 23.4506 13.0002 22.4928C12.9031 22.3431 12.7922 22.1934 12.6771 22.0465C12.604 21.9528 12.53 21.8599 12.4552 21.7676C12.5826 21.7709 12.7093 21.7477 12.8269 21.6996C12.8856 21.6754 12.9388 21.6397 12.9831 21.5949C13.0275 21.55 13.0621 21.4967 13.0848 21.4383C13.1722 21.207 13.0848 20.8832 12.8047 20.5131C12.5259 20.1417 12.0529 19.724 11.3581 19.305C10.8477 18.992 10.562 18.6111 10.4288 18.1975C10.2943 17.7825 10.3123 17.3335 10.4149 16.8913C10.6133 16.041 11.1223 15.2137 11.4455 14.6954C11.5328 14.6328 11.4774 14.8124 11.1181 15.4668C10.7964 16.0655 10.193 17.4464 11.0183 18.5254C11.0405 17.758 11.2263 16.9743 11.5412 16.2437C11.9975 15.2273 12.9531 13.4668 13.028 12.0627C13.0682 12.0899 13.2013 12.1797 13.2624 12.2123C13.4371 12.3144 13.5689 12.4627 13.7395 12.5974C13.9619 12.7816 14.246 12.8785 14.537 12.8695C14.8698 12.8695 15.1292 12.762 15.3442 12.6409C15.58 12.5103 15.7658 12.3634 15.9447 12.3076C16.3192 12.1919 16.6188 11.9878 16.788 11.7497C17.0793 12.879 17.7589 14.5076 18.1944 15.3022C18.426 15.724 18.8879 16.6206 19.0862 17.6995C19.2124 17.6968 19.3511 17.7131 19.5009 17.7512C20.021 16.4274 19.0584 15.0001 18.6188 14.6028C18.4413 14.4341 18.4315 14.3579 18.5217 14.362C18.9974 14.7756 19.6243 15.6097 19.8532 16.5498C19.9572 16.9784 19.978 17.4287 19.867 17.8736C19.9225 17.8968 19.978 17.9199 20.0335 17.9471C20.8698 18.3458 21.1791 18.6927 21.0307 19.1675Z" fill="white"/>
<path d="M15.071 15.5865C14.2998 15.5893 13.5467 15.928 12.9101 16.5607C12.2721 17.192 11.7811 18.0873 11.4982 19.1294L11.5828 19.1811V19.1866C12.2346 19.592 12.6993 20.0002 12.9864 20.3812C13.2901 20.7839 13.4246 21.1757 13.2957 21.5159C13.2276 21.6877 13.0929 21.8261 12.9212 21.9009L12.8643 21.9213C12.9669 22.0533 13.0668 22.1894 13.1597 22.3295C14.469 23.1839 15.9919 22.8683 17.1361 22.0955C17.2471 21.7172 17.3483 21.3662 17.3622 21.1458C17.3913 20.5812 17.4205 20.0682 17.5342 19.622C17.6479 19.173 17.8698 18.7648 18.2887 18.5403C18.3123 18.5267 18.3358 18.5199 18.3594 18.509C18.3668 18.4658 18.377 18.4231 18.3899 18.3811C18.0543 17.5349 17.5702 16.8301 16.9891 16.3403C16.4066 15.8505 15.745 15.5906 15.0723 15.5865H15.071ZM18.358 18.5186L18.3553 18.5254V18.5226L18.3566 18.5172L18.358 18.5186Z" fill="#E6E6E6"/>
<path d="M16.788 9.83271C16.794 10.1547 16.6889 10.4692 16.4898 10.7252C16.3902 10.6816 16.2894 10.6408 16.1875 10.6028L16.0113 10.5416C16.0515 10.4939 16.1292 10.4395 16.1597 10.3688C16.2036 10.2638 16.2272 10.1516 16.2291 10.0382L16.2304 10.0245C16.2339 9.91554 16.2174 9.8068 16.1819 9.70346C16.154 9.60908 16.1025 9.52303 16.0321 9.45311C16.0042 9.42405 15.9707 9.40068 15.9336 9.38434C15.8965 9.368 15.8564 9.359 15.8157 9.35787H15.806C15.7284 9.35893 15.6538 9.38799 15.5966 9.43951C15.5209 9.50383 15.4627 9.58566 15.4274 9.67761C15.3837 9.78267 15.3602 9.89476 15.3581 10.0082V10.0218C15.3559 10.0856 15.36 10.1494 15.3705 10.2123C15.2132 10.1411 15.0486 10.0863 14.8796 10.049C14.8715 9.98902 14.8669 9.92861 14.8657 9.86808V9.8504C14.8598 9.6413 14.9015 9.43354 14.9877 9.24222C15.0612 9.06607 15.1808 8.91211 15.3345 8.79596C15.4704 8.68828 15.6397 8.62925 15.8144 8.62861H15.8227C15.996 8.62861 16.1445 8.67759 16.297 8.78644C16.4541 8.89924 16.5772 9.05153 16.6535 9.22726C16.7408 9.41502 16.7838 9.59869 16.788 9.81638L16.7894 9.83271H16.788ZM14.1667 10.0558C14.0309 10.094 13.9014 10.1512 13.7825 10.2259C13.7918 10.1582 13.7927 10.0897 13.7852 10.0218V10.0109C13.7768 9.92105 13.7543 9.83295 13.7187 9.74972C13.6901 9.67647 13.6445 9.61078 13.5855 9.55788C13.5638 9.53701 13.538 9.52079 13.5096 9.51025C13.4811 9.49971 13.4508 9.49508 13.4205 9.49665C13.3622 9.50209 13.3137 9.5293 13.2679 9.58509C13.2192 9.64748 13.1859 9.72015 13.1708 9.79733C13.1492 9.8887 13.1431 9.98294 13.1528 10.0763V10.0871C13.1608 10.1776 13.1832 10.2662 13.2194 10.3497C13.2526 10.4334 13.3082 10.5067 13.3803 10.562L13.2388 10.6708L13.1306 10.747C13.0345 10.6543 12.959 10.5431 12.9087 10.4205C12.8352 10.2572 12.795 10.0939 12.7839 9.9021V9.90074C12.7712 9.7216 12.7923 9.54171 12.8463 9.37012C12.8877 9.22048 12.9674 9.08371 13.0779 8.97283C13.1242 8.92263 13.1807 8.88243 13.2438 8.85479C13.3068 8.82716 13.375 8.81268 13.4441 8.81229C13.5606 8.81229 13.6632 8.85038 13.77 8.93474C13.892 9.03304 13.9869 9.15982 14.046 9.30345C14.1195 9.46672 14.1569 9.62999 14.1694 9.82319C14.1736 9.90482 14.1736 9.98101 14.1667 10.0558Z" fill="white"/>
<path d="M14.7464 10.5157C14.7603 10.562 14.8366 10.5552 14.8809 10.5769C14.9184 10.596 14.9503 10.6382 14.9919 10.6395C15.0335 10.6409 15.0973 10.6259 15.1029 10.5851C15.1098 10.5334 15.0307 10.4994 14.9808 10.4803C14.9156 10.4545 14.8324 10.4422 14.7714 10.4763C14.7575 10.4831 14.7422 10.4994 14.7464 10.5157ZM14.2998 10.5157C14.2859 10.562 14.2097 10.5552 14.1667 10.5769C14.1278 10.596 14.0973 10.6382 14.0543 10.6395C14.0127 10.6409 13.9489 10.6259 13.9434 10.5851C13.9364 10.5334 14.0155 10.4994 14.0654 10.4803C14.1306 10.4545 14.2152 10.4422 14.2762 10.4763C14.2901 10.4831 14.304 10.4994 14.2998 10.5157Z" fill="#202020"/>
</svg>
