<svg width="30" height="30" viewBox="0 0 30 30" fill="none" xmlns="http://www.w3.org/2000/svg">
<path fill-rule="evenodd" clip-rule="evenodd" d="M15.8258 20.6951C12.8632 20.831 9.9124 20.2407 7.23564 18.9766L7.7774 18.1264C10.3046 19.241 13.063 19.7461 15.8258 19.6001C15.8258 19.693 15.9404 17.8623 16.1065 16.8647H12.2088C12.5203 13.0923 13.7092 9.4422 15.6827 6.2H4V23.8H16.2737C16.0598 22.7752 15.9103 21.7382 15.8258 20.6951Z" fill="#C6E9FA"/>
<path fill-rule="evenodd" clip-rule="evenodd" d="M17.1426 19.5303C18.9329 19.4193 20.6765 18.9161 22.2489 18.0569L22.9173 18.907C21.1342 19.8751 19.167 20.4608 17.1426 20.6264C17.1985 21.6988 17.3668 22.7624 17.6448 23.8H26V6.2H17.1062C15.2536 9.06217 14.0963 12.3146 13.7263 15.6993H17.7189C17.3851 16.9493 17.1918 18.2323 17.1426 19.5247V19.5303Z" fill="#00ADEE"/>
<path fill-rule="evenodd" clip-rule="evenodd" d="M9.55789 8.71429H10.4842V11.4571H9.55789V8.71429Z" fill="#00ADEE"/>
<path fill-rule="evenodd" clip-rule="evenodd" d="M19.0526 8.71429H19.9789V11.4571H19.0526V8.71429Z" fill="#231F20"/>
<path fill-rule="evenodd" clip-rule="evenodd" d="M17.1533 19.5714C18.9627 19.4594 20.7248 18.9521 22.3139 18.0857L22.9895 18.9429C21.1873 19.919 19.1993 20.5096 17.1533 20.6766C17.2431 22.7036 17.7747 24.6872 18.7116 26.4903L17.7357 27C15.9529 24.2057 15.6341 20.4411 16.2533 16.8823H12.3368C12.7433 11.7739 14.7489 6.9197 18.0729 3L18.9176 3.72686C15.9886 7.09884 14.1682 11.2797 13.7006 15.7086H17.7357C17.3983 16.9689 17.203 18.2626 17.1533 19.5657V19.5714Z" fill="#231F20"/>
<path fill-rule="evenodd" clip-rule="evenodd" d="M16.0421 20.8083C13.0071 20.9524 9.98424 20.3267 7.24211 18.9868L7.79709 18.0857C10.386 19.2671 13.2118 19.8024 16.0421 19.6477V20.8083Z" fill="#00ADEE"/>
</svg>
