<svg width="30" height="30" viewBox="0 0 30 30" fill="none" xmlns="http://www.w3.org/2000/svg">
<path d="M7.1419 5.82231L17.5693 5.15521C18.8314 5.03392 19.1619 5.18554 19.9733 5.76167L23.1285 8.03589C23.6694 8.43008 24 8.46039 24 8.91524V21.8631C24 22.6818 23.6995 23.167 22.6778 23.2276L10.5977 23.9554C9.81636 23.9857 9.45576 23.8947 9.06511 23.3792L6.63105 20.1953C6.1803 19.5889 6 19.1644 6 18.6489V7.12619C6 6.45909 6.3005 5.88295 7.1419 5.82231Z" fill="white"/>
<path fill-rule="evenodd" clip-rule="evenodd" d="M17.5392 5.03391L7.1419 5.82231C6.3005 5.88295 6 6.45909 6 7.12619V18.6489C6 19.1644 6.1803 19.6192 6.63105 20.1953L9.06511 23.4096C9.45576 23.9251 9.84641 24.0463 10.5977 23.9857L22.6778 23.258C23.6995 23.1973 24 22.7121 24 21.8934V8.91524C24 8.49072 23.8498 8.36943 23.3389 8.00555C23.3088 7.97523 23.2788 7.97523 23.2487 7.94491L19.9432 5.61005C19.1619 5.00359 18.8314 4.94294 17.5392 5.03391ZM10.8681 8.70298C9.87646 8.76362 9.66611 8.79395 9.09516 8.30878L7.6828 7.18683C7.53255 7.03522 7.59265 6.85328 7.98331 6.82296L17.99 6.09521C18.8314 6.03457 19.2521 6.30747 19.5826 6.58038L21.2955 7.82361C21.3856 7.85394 21.5659 8.0662 21.3255 8.0662L10.9883 8.70298H10.8681ZM9.72621 21.7721V10.7649C9.72621 10.2798 9.87646 10.0675 10.2972 10.0372L22.1669 9.33976C22.5576 9.30944 22.7379 9.55202 22.7379 10.0372V20.9534C22.7379 21.4386 22.6477 21.8328 22.0167 21.8631L10.6578 22.5302C10.0267 22.5908 9.72621 22.3483 9.72621 21.7721ZM20.9349 11.3714C20.995 11.7049 20.9349 12.0385 20.6043 12.0688L20.0634 12.1901V20.3166C19.5826 20.5895 19.1619 20.7108 18.8013 20.7108C18.2304 20.7108 18.0801 20.5289 17.6294 19.9831L14.0234 14.2824V19.7708L15.1653 20.0437C15.1653 20.0437 15.1653 20.7108 14.2638 20.7108L11.7396 20.8624C11.6795 20.7108 11.7396 20.347 11.98 20.2863L12.6411 20.1044V12.8269L11.7396 12.7359C11.6795 12.4024 11.8598 11.9172 12.3706 11.8869L15.0751 11.7049L18.8013 17.4663V12.372L17.8397 12.2508C17.7796 11.8566 18.0501 11.5533 18.4107 11.523L20.9349 11.3714Z" fill="black"/>
</svg>
