<svg width="30" height="30" viewBox="0 0 30 30" fill="none" xmlns="http://www.w3.org/2000/svg">
<path d="M9.20196 17.6384C9.20196 18.7948 8.25733 19.7394 7.10098 19.7394C5.94463 19.7394 5 18.7948 5 17.6384C5 16.4821 5.94463 15.5375 7.10098 15.5375H9.20196V17.6384Z" fill="#E01E5A"/>
<path d="M10.2606 17.6384C10.2606 16.4821 11.2052 15.5375 12.3616 15.5375C13.5179 15.5375 14.4625 16.4821 14.4625 17.6384V22.899C14.4625 24.0554 13.5179 25 12.3616 25C11.2052 25 10.2606 24.0554 10.2606 22.899V17.6384Z" fill="#E01E5A"/>
<path d="M12.3616 9.20196C11.2052 9.20196 10.2606 8.25733 10.2606 7.10098C10.2606 5.94463 11.2052 5 12.3616 5C13.5179 5 14.4625 5.94463 14.4625 7.10098V9.20196H12.3616Z" fill="#36C5F0"/>
<path d="M12.3616 10.2606C13.5179 10.2606 14.4625 11.2052 14.4625 12.3616C14.4625 13.5179 13.5179 14.4625 12.3616 14.4625H7.10098C5.94463 14.4625 5 13.5179 5 12.3616C5 11.2052 5.94463 10.2606 7.10098 10.2606H12.3616Z" fill="#36C5F0"/>
<path d="M20.798 12.3616C20.798 11.2052 21.7427 10.2606 22.899 10.2606C24.0554 10.2606 25 11.2052 25 12.3616C25 13.5179 24.0554 14.4625 22.899 14.4625H20.798V12.3616Z" fill="#2EB67D"/>
<path d="M19.7394 12.3616C19.7394 13.5179 18.7948 14.4625 17.6384 14.4625C16.4821 14.4625 15.5375 13.5179 15.5375 12.3616V7.10098C15.5375 5.94463 16.4821 5 17.6384 5C18.7948 5 19.7394 5.94463 19.7394 7.10098V12.3616Z" fill="#2EB67D"/>
<path d="M17.6384 20.798C18.7948 20.798 19.7394 21.7427 19.7394 22.899C19.7394 24.0554 18.7948 25 17.6384 25C16.4821 25 15.5375 24.0554 15.5375 22.899V20.798H17.6384Z" fill="#ECB22E"/>
<path d="M17.6384 19.7394C16.4821 19.7394 15.5375 18.7948 15.5375 17.6384C15.5375 16.4821 16.4821 15.5375 17.6384 15.5375H22.899C24.0554 15.5375 25 16.4821 25 17.6384C25 18.7948 24.0554 19.7394 22.899 19.7394H17.6384Z" fill="#ECB22E"/>
</svg>
