<svg width="30" height="30" viewBox="0 0 30 30" fill="none" xmlns="http://www.w3.org/2000/svg">
<path fill-rule="evenodd" clip-rule="evenodd" d="M15 27C21.6274 27 27 21.6274 27 15C27 8.37258 21.6274 3 15 3C8.37258 3 3 8.37258 3 15C3 21.6274 8.37258 27 15 27ZM17.8624 21.3707C17.8624 21.3707 17.8473 21.1168 17.8013 20.996C17.7645 20.901 17.6595 20.7981 17.6173 20.7588C17.6156 20.7107 17.6085 20.6568 17.5993 20.5983C17.8276 20.2792 17.9585 19.8953 17.9293 19.4218C17.8975 18.9079 17.6206 18.3441 17.3333 17.9113L17.3317 17.8239H17.353C17.4191 17.821 17.5792 17.6938 17.537 17.5362C17.4885 17.3396 17.3124 17.2961 17.2497 17.2961H17.2321C17.2238 17.281 17.224 17.2739 17.2241 17.2679C17.2242 17.2605 17.2243 17.2547 17.2091 17.238L17.1861 17.1991C16.6834 16.2552 16.0331 14.3177 15.8592 13.2513C16.315 13.2513 16.7399 13.2513 16.755 13.2508C16.8001 13.245 17.2522 13.0083 17.2233 12.6273C17.1907 12.1493 16.7278 11.9749 16.6843 11.9749H15.7517L15.7509 11.9615C16.3376 11.6776 16.7416 11.0691 16.7416 10.3669C16.7416 9.39124 15.9591 8.6 14.9939 8.6C14.0287 8.6 13.2462 9.39124 13.2462 10.3669C13.2462 11.0682 13.6506 11.6767 14.237 11.9615L14.2357 11.9749H13.2893C13.2458 11.9749 12.8013 12.1493 12.7678 12.6273C12.739 13.0087 13.173 13.2441 13.2182 13.2521C13.2349 13.2525 13.6745 13.2525 14.1274 13.2525C13.9576 14.3014 13.4348 16.0599 12.9819 17.1489C12.9455 17.2062 12.9175 17.2556 12.8975 17.297H12.8527C12.79 17.297 12.6135 17.3388 12.5654 17.537C12.5232 17.6942 12.6842 17.8214 12.7494 17.8247H12.7582L12.7398 17.8845L12.7256 17.9121C12.6964 17.9583 12.6656 18.0061 12.6338 18.0553C12.3951 18.4254 12.104 18.8767 12.0719 19.3244C12.0368 19.8196 12.1807 20.298 12.422 20.6296C12.4136 20.6622 12.4036 20.7024 12.3923 20.7513C12.3563 20.7785 12.2367 20.8793 12.1915 20.9884C12.138 21.1172 12.1372 21.3707 12.1372 21.3707H17.8624Z" fill="#FEFEFE"/>
</svg>
