<svg width="30" height="30" viewBox="0 0 30 30" fill="none" xmlns="http://www.w3.org/2000/svg">
<path d="M16.8721 17.7029C17.1222 17.5608 17.405 17.4624 17.4922 17.4951C17.6118 17.5388 17.5685 17.5936 17.3401 17.6919L17.0135 17.8341L17.8839 17.8779L17.4487 17.9542C17.0245 18.0307 17.0354 18.0307 17.6336 18.0526C18.134 18.0635 18.2755 18.1074 18.3734 18.2823C18.4387 18.4025 18.58 18.501 18.6888 18.501C18.8846 18.501 19.2545 18.8289 19.0695 18.8289C19.0153 18.829 19.0479 18.8837 19.1349 18.9383C19.2436 19.0039 19.1675 19.0257 18.863 18.982C18.4496 18.9274 18.4497 18.9381 19.0154 19.1349C19.3308 19.2551 19.744 19.5066 19.9398 19.7034C20.1248 19.9002 20.2335 20.0315 20.1682 20.0096C20.1135 19.9876 19.7765 19.8238 19.4286 19.6599C18.6454 19.2773 18.4714 19.3645 19.2328 19.7471C19.5265 19.9002 19.8311 20.13 19.8964 20.2393C19.9942 20.436 19.9833 20.4468 19.7005 20.3047C19.5373 20.2282 19.2109 20.1409 18.9716 20.1081C18.5475 20.0425 18.5475 20.0535 19.0695 20.2174C19.4176 20.3268 19.5591 20.4141 19.4612 20.4688C19.3633 20.5343 19.3851 20.5782 19.5482 20.6219C19.6678 20.6656 19.8202 20.7639 19.8964 20.8513C20.0269 21.0153 20.1357 21.0372 18.1232 20.4141C17.5903 20.2501 17.1879 20.0972 17.2203 20.0643C17.2529 20.0206 17.2204 19.9221 17.1443 19.8346C17.0355 19.6816 17.0463 19.6706 17.2313 19.7471C17.4924 19.8565 19.026 19.9768 19.026 19.8893C19.0259 19.8565 18.7431 19.769 18.406 19.7034C18.0579 19.6269 17.6881 19.5067 17.5576 19.4302C17.4379 19.3537 17.2095 19.2661 17.0464 19.2224C16.8724 19.1787 16.7418 19.1023 16.7417 19.0367C16.7417 18.9602 16.8178 18.9492 16.9375 18.993C17.0354 19.0258 17.2747 19.0802 17.4487 19.113C17.6989 19.1458 17.6881 19.1242 17.3727 19.0367C16.807 18.8727 16.8613 18.7414 17.5031 18.6539C18.2429 18.5555 18.1013 18.4682 17.1984 18.4464C16.5458 18.4354 16.4696 18.4134 16.437 18.2057C16.4152 18.0418 16.5241 17.9106 16.8721 17.7029Z" fill="#FEFEFE"/>
<path d="M14.5224 10.1375C14.642 10.0391 14.8488 9.99536 15.0445 10.0281C15.2185 10.0609 15.4905 10.0828 15.6646 10.0828C15.8713 10.0828 15.9802 10.1375 15.9802 10.2469C15.9802 10.3671 15.9039 10.389 15.6646 10.3453C15.4906 10.3016 15.3165 10.3344 15.2839 10.4C15.2405 10.4655 15.2841 10.5201 15.3711 10.5201C15.4689 10.5201 15.5451 10.6077 15.5451 10.7279C15.5451 10.9684 15.2514 11.2525 15.1318 11.1214C15.0883 11.0776 15.1208 11.0123 15.1969 10.9904C15.3709 10.9248 15.0447 10.6404 14.7945 10.6294C14.6749 10.6294 14.6747 10.6732 14.8161 10.8263C14.9249 10.9356 15.001 11.1214 15.001 11.2307C15.001 11.4166 14.9685 11.4056 14.7292 11.176C14.4028 10.87 14.3702 10.9794 14.6857 11.3729C14.9576 11.7227 14.7836 11.832 14.4573 11.5042C14.3376 11.3839 14.1851 11.3073 14.1307 11.3401C13.9893 11.4273 13.7719 10.9684 13.8698 10.7607C13.9133 10.6623 13.9351 10.4875 13.9242 10.3781C13.9025 10.2251 13.9459 10.1922 14.0982 10.2359C14.2178 10.2687 14.4027 10.2249 14.5224 10.1375Z" fill="#FEFEFE"/>
<path d="M15.0664 7.73229C15.3057 7.50275 15.8279 7.52464 16.3935 7.79792C16.9374 8.07121 17.3399 8.77084 17.0464 8.95677C16.9811 8.98957 16.9484 8.97862 16.9919 8.92396C17.0243 8.86932 16.6217 8.82552 16.0563 8.82552C15.1536 8.82552 15.0555 8.80372 15.088 8.62891C15.1207 8.46492 15.0663 8.45393 14.8161 8.50859C14.5442 8.58511 14.5226 8.57413 14.6531 8.41016C14.7402 8.31181 14.9358 8.2133 15.088 8.19141C15.3491 8.14768 15.3492 8.1479 15.0339 8.12604C14.8381 8.12604 14.6749 8.06038 14.6747 8.00573C14.6747 7.94013 14.7293 7.89635 14.7945 7.89635C14.8598 7.89628 14.9794 7.81971 15.0664 7.73229Z" fill="#FEFEFE"/>
<path fill-rule="evenodd" clip-rule="evenodd" d="M15 3C21.6274 3 27 8.37258 27 15C27 21.6274 21.6274 27 15 27C8.37258 27 3 21.6274 3 15C3 8.37258 8.37258 3 15 3ZM13.6958 8.01667C13.326 7.27326 12.5318 7.06557 11.6289 7.47005C10.8022 7.84175 10.4866 8.88021 11.0305 9.47057C11.3133 9.77669 11.5526 9.85327 11.4547 9.59089C11.4112 9.50348 11.433 9.4269 11.4982 9.42682C11.5526 9.42682 11.6398 9.51437 11.6833 9.61276C11.7486 9.78763 11.7704 9.78763 11.9661 9.54714C12.0749 9.4051 12.1726 9.35041 12.1727 9.41589C12.1727 9.48148 12.0749 9.63469 11.9552 9.75495C11.8356 9.8752 11.792 9.99533 11.8573 10.0281C11.9117 10.0719 11.9334 10.1485 11.9008 10.2031C11.8573 10.2577 11.8573 10.3015 11.8898 10.3016C11.9225 10.3016 12.0967 10.0829 12.2924 9.80964C12.4881 9.53652 12.6729 9.3397 12.7057 9.37214C12.7275 9.40493 12.6949 9.49248 12.6297 9.55807C12.4665 9.72205 12.4556 9.89703 12.6188 9.7987C12.7058 9.75497 12.7057 9.79856 12.6188 9.9625C12.4773 10.2249 12.3684 10.2686 12.4555 10.0281C12.5534 9.78763 12.412 9.83138 12.2815 10.0828C12.1727 10.2796 12.1945 10.3016 12.5534 10.3016C12.8253 10.3016 12.9234 10.2578 12.869 10.1703C12.8255 10.0938 12.8364 10.0828 12.9234 10.1266C12.9887 10.1702 13.1192 10.1593 13.1953 10.0938C13.3041 9.99538 13.3584 10.0064 13.4128 10.1375C13.4454 10.225 13.5434 10.3016 13.6305 10.3016C13.9024 10.3016 13.6956 10.7389 13.3258 10.9247C12.8581 11.1871 12.7601 11.1871 12.5099 10.9357C12.3794 10.8264 12.1293 10.6732 11.9552 10.6185C11.7377 10.531 11.6507 10.4437 11.6833 10.2906C11.7051 10.1704 11.6397 10.039 11.5091 9.97344C11.4004 9.90793 11.3025 9.89702 11.3023 9.94063C11.3023 9.98435 11.2371 9.92988 11.1609 9.80964C11.063 9.68938 10.9543 9.6456 10.8781 9.70026C10.7044 9.79874 11.2699 10.2031 11.4766 10.1156C11.5636 10.0829 11.5963 10.1376 11.5854 10.2688C11.5637 10.3781 11.6071 10.531 11.6724 10.6185C11.7703 10.7497 11.7376 10.7606 11.4875 10.6951C11.2373 10.6404 11.1719 10.6623 11.0849 10.8919C11.0305 11.045 10.8346 11.2417 10.6497 11.3401C10.4757 11.4276 10.3234 11.537 10.3234 11.5698C10.324 11.5913 10.476 11.5368 10.6497 11.4495C10.9326 11.2964 10.987 11.2964 11.0414 11.4385C11.074 11.526 11.0522 11.6899 10.987 11.8211C10.715 12.324 10.9108 12.8816 11.4112 13.0674C11.52 13.1112 11.5092 13.1331 11.3461 13.1331C11.2156 13.144 10.9653 12.9798 10.7695 12.7612C10.5846 12.5535 10.3668 12.3786 10.3016 12.3786C10.2256 12.3787 10.2799 12.4553 10.4104 12.5536C10.5953 12.6848 10.6279 12.7612 10.5409 12.8706C10.443 12.9799 10.4975 13.0347 10.7477 13.0893C11.161 13.1768 11.2916 13.3625 10.9544 13.3625C10.7913 13.3625 10.7477 13.3953 10.8456 13.45C10.9435 13.5156 10.9109 13.6032 10.7042 13.8C10.5519 13.9421 10.4323 14.0951 10.4323 14.1497C10.4323 14.2044 10.5518 14.1059 10.6932 13.9419C10.9434 13.6468 11.2371 13.6468 10.9979 13.931C10.9327 14.0184 10.9217 14.2372 10.976 14.5104C11.0413 14.8493 11.0631 14.8822 11.074 14.6526C11.0849 14.27 11.2916 13.8328 11.4766 13.7563C11.5853 13.7125 11.6289 13.8108 11.6289 14.106C11.6289 14.3246 11.6831 14.5869 11.7375 14.6745C11.8136 14.7838 11.8464 14.587 11.8464 14.0185C11.8464 13.308 11.8789 13.1548 12.1182 12.8815C12.4011 12.5426 12.4556 12.4334 12.2815 12.5427C12.1401 12.6301 12.1401 12.4879 12.2815 12.2693C12.3576 12.1381 12.4448 12.1272 12.7167 12.2365C13.1192 12.3895 13.1408 12.3241 12.7492 12.1164C12.3359 11.8868 12.6404 11.8978 13.0755 12.1164C13.4889 12.3351 13.8044 12.5975 13.8044 12.7286C13.8042 12.7831 13.652 12.7176 13.4672 12.5865L13.1299 12.3458L13.2607 12.5974C13.3477 12.7614 13.3693 13.0565 13.3367 13.3953C13.2497 14.084 13.3584 13.9967 13.4672 13.2862C13.5216 12.9364 13.5761 12.816 13.6305 12.9362C13.674 13.0455 13.5651 13.4828 13.3693 14.0076C12.9886 15.0023 12.2816 15.877 11.8682 15.8771C11.5745 15.8771 10.8239 15.4178 10.6607 15.1445C10.5954 15.0352 10.5409 14.9917 10.5409 15.0464C10.5407 15.1008 10.443 15.0571 10.3234 14.9479C10.1929 14.8277 10.1059 14.598 10.0951 14.3576C10.0842 13.964 10.084 13.964 10.0078 14.2919L9.94271 14.6198L9.63802 14.0185C9.3553 13.4612 9.35526 13.4064 9.52917 13.2862C9.69234 13.155 9.6924 13.144 9.5401 13.144C9.28995 13.144 9.19199 12.947 9.34427 12.7612C9.4204 12.6737 9.44215 12.5974 9.38776 12.5974C9.34449 12.5972 9.42068 12.4769 9.56198 12.324C9.70341 12.1709 9.94277 12.0508 10.0951 12.0508C10.3017 12.0508 10.3343 12.0179 10.2255 11.9523C10.1385 11.8977 10.1166 11.7992 10.1602 11.7117C10.2471 11.5478 9.649 12.0616 9.32266 12.4115C9.02896 12.7285 9.08326 13.3298 9.44219 13.9638C9.82293 14.6307 10.8347 15.8005 10.8891 15.6474C10.9109 15.5819 11.0306 15.6148 11.1719 15.7349C11.3677 15.8879 11.4005 15.9973 11.3461 16.2815C11.2591 16.6969 11.1283 16.6643 10.976 16.1724L10.8674 15.8224L10.9326 16.2052C10.9652 16.4129 10.9978 16.7298 10.987 16.9047C10.9761 17.0686 11.0306 17.2872 11.0958 17.3638C11.172 17.4622 11.2044 17.7247 11.1609 18.0526C11.1283 18.3478 11.1394 18.7634 11.2047 18.9602C11.357 19.5505 11.4004 20.0753 11.2917 20.2065C11.2373 20.2832 11.1393 20.7313 11.0849 21.2232C10.9435 22.4804 11.0198 22.6115 11.9227 22.699C12.3141 22.7427 12.662 22.7427 12.6948 22.7099C12.7274 22.6771 12.6297 22.6552 12.4883 22.6552C12.1185 22.6552 11.7377 22.5351 11.7375 22.4258C11.7375 22.3711 11.8573 22.3821 12.0096 22.4367C12.4012 22.5897 12.3358 22.4147 11.9333 22.218C11.6288 22.0759 11.5744 21.9883 11.5526 21.6167C11.5417 21.3652 11.607 21.07 11.7049 20.906C11.879 20.6437 11.8791 20.6438 11.6833 20.7969C11.4984 20.9499 11.4874 20.9389 11.5635 20.6328C11.6723 20.1955 11.7702 20.0861 12.3141 19.8237C12.5643 19.6925 12.6948 19.5943 12.6078 19.5943C12.5099 19.5943 12.2596 19.7144 12.0312 19.8674C11.5744 20.1845 11.5091 20.1188 11.8789 19.7253L12.1182 19.4521L11.8789 19.5833C11.5527 19.7582 11.5637 19.6488 11.9117 19.3208C12.1836 19.0694 12.1835 19.0693 11.9333 19.113L11.6833 19.1677L11.9333 19.0258C12.0639 18.9383 12.1401 18.8398 12.0966 18.7852C12.0531 18.7414 12.1074 18.7415 12.2161 18.7852C12.3576 18.8398 12.4011 18.8289 12.3576 18.7523C12.3141 18.6758 12.4121 18.5992 12.6078 18.5555C13.0321 18.468 13.9893 18.7743 14.1307 19.0586C14.2395 19.2553 14.2287 19.2553 13.8154 19.0477C13.4782 18.8618 13.315 18.8399 13.0214 18.9164C12.6733 19.0148 12.6731 19.0148 13.1844 19.0148C13.6413 19.0148 13.7393 19.0585 14.0221 19.3865C14.1962 19.5942 14.3376 19.8456 14.3484 19.944C14.3484 20.108 14.3049 20.119 14.0656 20.0315C13.9133 19.9659 13.5651 19.9331 13.2823 19.944L12.7711 19.9549L13.2607 20.0096C13.6305 20.0424 13.6957 20.0753 13.5326 20.1409C13.3694 20.1955 13.4348 20.2391 13.8372 20.2938C14.1635 20.3484 14.3484 20.4251 14.3484 20.5234C14.3484 20.6109 14.2831 20.6547 14.1961 20.6219C14.0765 20.5782 14.0438 20.6328 14.0872 20.8404C14.1308 21.1137 14.1091 21.1247 13.674 21.1357C13.4129 21.1466 13.0864 21.1904 12.9341 21.2341C12.7385 21.2997 12.869 21.3216 13.4128 21.3326C13.9239 21.3435 14.1416 21.3761 14.0656 21.4526C14.0112 21.5073 13.8263 21.5729 13.674 21.5839C13.5108 21.5948 13.402 21.6495 13.4346 21.6932C13.4673 21.737 13.1735 21.7917 12.8036 21.8135L12.1182 21.8464L12.9341 21.8682C13.6738 21.8901 13.761 21.9119 13.7719 22.1086C13.7828 22.2288 13.7827 22.3273 13.7719 22.3273C13.587 22.3383 12.9346 22.6441 13.0755 22.6552C13.4889 22.6552 13.9133 22.3164 14.1961 21.7479C14.5551 21.0373 14.838 20.8078 15.3602 20.7969H15.7625V21.8464L16.5568 22.0867C17.4705 22.36 17.6229 22.3819 17.8078 22.1961C17.8949 22.1087 18.2322 22.0758 18.8195 22.0977C19.6026 22.1195 19.7224 22.0978 19.9508 21.8901C20.2554 21.6059 20.4947 20.6219 20.3969 20.119C20.3098 19.6817 19.6243 18.8727 18.9716 18.4245C17.1551 17.1892 17.1768 17.2109 17.1768 16.6862C17.1768 16.4785 17.1114 16.3143 17.0135 16.2706C16.9048 16.2377 16.8505 16.0628 16.8505 15.7786C16.8505 15.4507 16.796 15.3085 16.6328 15.2211C16.5133 15.1555 16.4155 15.0573 16.4154 15.0026C16.4154 14.9479 16.6547 15.0462 16.9484 15.232C17.34 15.4835 17.5468 15.5383 17.7643 15.4836C18.1776 15.3852 18.4822 14.937 18.4714 14.4669L18.4604 14.0732L18.3299 14.3794L18.1885 14.6964L17.8404 14.1388C17.3617 13.3954 17.2856 13.4282 17.7099 14.1826C17.8948 14.5105 18.0471 14.8276 18.0471 14.8932C18.0471 15.0899 17.8511 15.0134 17.5357 14.6745C17.3725 14.4887 17.1985 14.3466 17.1549 14.3466C17.0026 14.3464 16.5243 13.8656 16.5242 13.7234C16.5242 13.636 16.5784 13.6032 16.6328 13.6359C16.6981 13.6687 16.7417 13.6359 16.7417 13.5375C16.7417 13.45 16.7744 13.2861 16.807 13.1768C16.8505 13.0347 16.7851 13.0675 16.5893 13.2753C16.4371 13.4501 16.2957 13.5375 16.263 13.4828C16.2305 13.4391 16.3065 13.297 16.437 13.1878C16.5566 13.0675 16.7416 12.8051 16.8286 12.5974C16.9592 12.3132 17.0137 12.2584 17.0464 12.4115C17.0681 12.5208 17.0244 12.6737 16.9591 12.7612C16.8612 12.8815 16.8721 12.9691 17.0135 13.1659L17.1984 13.4172L17.1224 13.1768C17.0898 13.0347 17.1008 12.8487 17.1443 12.7612C17.2204 12.6302 17.2965 12.685 17.4922 13.0456C17.6662 13.3517 17.775 13.45 17.8294 13.3625C17.8947 13.2642 17.9493 13.297 18.0471 13.4719C18.1124 13.6031 18.1994 13.6797 18.232 13.6469C18.3408 13.5485 17.9165 13.144 17.7969 13.2206C17.7316 13.2643 17.7099 13.2205 17.7534 13.1221C17.786 13.0128 17.7206 12.8596 17.5901 12.7503C17.3508 12.5206 16.742 11.6466 16.7417 11.5151C16.7417 11.2637 16.2956 11.0448 15.9258 11.0995C15.4907 11.1651 15.5015 11.1761 15.6755 10.7935C15.8169 10.4655 16.0237 10.4218 15.9258 10.7388C15.8714 10.9028 15.8932 10.9356 16.0237 10.8919C16.1107 10.8591 16.1543 10.7606 16.1216 10.6732C16.089 10.5858 16.1216 10.5201 16.1977 10.5201C16.2629 10.5201 16.2846 10.4656 16.2411 10.4C16.1868 10.3125 16.2739 10.2906 16.5023 10.3234C16.7634 10.3562 16.8178 10.3452 16.7417 10.2359C16.5785 10.0501 16.8505 9.97344 17.7099 9.97344C19.3196 9.97343 20.7879 9.83141 20.8427 9.67839C20.9515 9.38321 20.7123 9.33936 19.6245 9.41589L18.5367 9.50339L19.5591 9.52526C20.1248 9.52526 20.5599 9.56903 20.5164 9.60182C20.4835 9.63463 20.0377 9.7003 19.5266 9.74401C18.7434 9.79867 18.5803 9.78764 18.5367 9.64557C18.4932 9.51438 18.3189 9.49247 17.4922 9.5362C16.9483 9.56899 16.4478 9.55805 16.3826 9.51432C16.1978 9.405 16.4045 9.2302 16.7742 9.18646C16.97 9.16459 17.1549 9.03323 17.2964 8.80365L17.5141 8.46484L17.2094 8.16953C16.7417 7.72137 16.3174 7.54659 15.5995 7.49193C15.0338 7.4482 14.9032 7.46991 14.6313 7.68854C14.3484 7.91813 14.3266 7.97288 14.381 8.46484C14.4245 8.76002 14.5116 9.05525 14.5878 9.14271C14.7728 9.32854 15.4799 9.47049 15.3711 9.30651C15.3276 9.23002 15.3601 9.19742 15.4471 9.23021C15.5341 9.26301 15.6103 9.36127 15.632 9.45964C15.6647 9.62362 15.5667 9.64557 14.9576 9.64557C14.5661 9.64557 14.2072 9.65652 14.1635 9.66745C14.1091 9.68931 14.0655 9.57988 14.0438 9.42682C14.0329 9.27376 13.9894 9.03324 13.9568 8.88021L13.8914 8.60703L13.6849 8.86927C13.5761 9.01139 13.4781 9.17556 13.4781 9.25208C13.4671 9.31779 13.3475 9.51452 13.1844 9.70026L12.9125 10.0281L13.3693 9.24115L12.5862 9.17552C12.1619 9.14272 11.5852 9.13178 11.3133 9.15365C10.9 9.19737 10.8674 9.18642 11.1393 9.1099L11.4656 9.01146L11.1393 8.98958C10.8783 8.96772 10.9217 8.94579 11.3568 8.86927C11.6614 8.81461 12.1511 8.80367 12.4448 8.8474C13.1083 8.93484 13.3802 8.90199 13.576 8.71615C13.7065 8.58501 13.6848 8.5523 13.4346 8.48672C13.13 8.41019 12.1618 8.47584 11.7919 8.59609C11.6724 8.62884 11.7704 8.5632 12.0096 8.44297C12.4448 8.21341 13.2606 8.1915 13.7284 8.38828C13.9133 8.46479 13.9133 8.44291 13.6958 8.01667Z" fill="#FEFEFE"/>
</svg>
