<svg width="30" height="30" viewBox="0 0 30 30" fill="none" xmlns="http://www.w3.org/2000/svg">
<path fill-rule="evenodd" clip-rule="evenodd" d="M15 27C21.6274 27 27 21.6274 27 15C27 8.37258 21.6274 3 15 3C8.37258 3 3 8.37258 3 15C3 21.6274 8.37258 27 15 27ZM8.57415 9.93333H8.32152L8.16713 9.96855L8.05485 10.0108L7.94959 10.0601L7.84433 10.1235L7.72503 10.208V10.2221H7.71099L7.62678 10.2995L7.56362 10.37L7.47941 10.4615L7.41626 10.546L7.36012 10.6235L7.2759 10.7573L7.21976 10.8629L7.13555 11.046L7.04433 11.3137L7.00222 11.4756L6.96713 11.6799L6.93906 11.9545V12.2433L6.96012 12.4264L6.98819 12.5883L7.03029 12.7433L7.10047 12.9264L7.15661 13.0391L7.21976 13.1447L7.28292 13.2292L7.3531 13.3067L7.45134 13.3912L7.55661 13.4616L7.71801 13.5391L7.83029 13.5672L7.99871 13.5954L8.0791 13.615L8.0774 13.6151L8.07057 13.6292L8.14567 13.6362H8.16626L8.23029 13.6518L8.49696 13.7081L8.74257 13.7644L9.03731 13.8278L9.15661 13.8419L9.25485 13.8349L9.31099 13.8208L9.41626 13.7856L9.50047 13.7433L9.62678 13.6658L9.68292 13.6236L9.78117 13.5461L9.87941 13.4475L9.97766 13.3419L10.0549 13.2433L10.111 13.1729L10.1812 13.0602L10.2513 12.9334L10.3426 12.7362L10.3847 12.6236L10.4478 12.4123L10.4899 12.2292L10.518 12.0461L10.5391 11.7644V11.6165L10.518 11.3137L10.497 11.1799L10.4619 11.032L10.3917 10.8207L10.3426 10.715L10.2724 10.5883L10.1882 10.4756L10.104 10.3911L10.0057 10.3207L9.9145 10.2855L9.40924 10.1517L9.20573 10.0953L8.76362 9.97559L8.57415 9.93333ZM18.7756 10.7632L18.6208 10.7562L18.4027 10.7772L18.3042 10.7982L18.0931 10.8682L17.9876 10.9172L17.861 10.9872L17.7625 11.0571L17.6851 11.1201L17.6147 11.1901L17.5655 11.2461L17.5021 11.3161L17.4177 11.435L17.3685 11.526L17.284 11.701L17.2348 11.8549L17.1926 12.0719L17.1785 12.1978V12.3658L17.1926 12.5058L17.2348 12.7227V12.7997L17.2137 12.8627L17.0941 13.2056L16.9885 13.4645L16.9041 13.6255L16.8408 13.7374L16.7423 13.8844L16.6649 13.9824L16.5382 14.1084L16.4749 14.1573L16.3694 14.2203L16.2779 14.2553L16.1724 14.3043L16.0598 14.3603L15.9402 14.4163L15.7713 14.5142L15.5391 14.6682L15.4055 14.7662L15.307 14.8432L15.2577 14.8362L15.0396 14.8152H14.8004L14.7089 14.8222L14.6174 14.8362L14.4767 14.8642L14.3501 14.9061L14.1601 14.9901L14.0194 15.0741L13.8998 15.1581L13.8013 15.2421L13.745 15.291L13.6746 15.361L13.5902 15.459L13.5128 15.55L13.4495 15.634L13.3791 15.7319L13.3229 15.8299L13.3088 15.8649L13.3862 15.8579L13.5761 15.8439L13.7802 15.8509L13.8787 15.8649L14.0757 15.9069L14.2094 15.9489L14.2234 15.9699L13.9913 15.9419H13.8365L13.6535 15.9629L13.4284 16.0049L13.2525 16.0539L13.1259 16.1028L12.9922 16.1588L12.8092 16.2568L12.7037 16.3198L12.5771 16.4108L12.5137 16.4667L12.5067 16.4947L12.5208 16.5227L12.5911 16.7257L12.6474 16.9076L12.6826 17.1176L12.7037 17.3345V17.5235L12.6826 17.7474L12.6545 17.9504L12.6333 18.0203L12.6122 18.0413L12.6193 17.9084L12.5982 17.6214L12.563 17.2925L12.5419 17.1666L12.4645 16.8586L12.4082 16.6837L12.3308 16.4737L12.2464 16.2988L12.1901 16.1868L12.1057 16.0399L11.9931 15.8719L11.9298 15.7879L11.8524 15.6899L11.8031 15.634L11.7328 15.557L11.6694 15.48L11.6061 15.41L11.5287 15.312L11.4443 15.1931L11.3739 15.0811L11.3106 14.9621L11.2051 14.7312L11.1277 14.5142L11.0644 14.3043L11.001 14.0314L10.9588 13.8004L10.9307 13.5415L10.9166 13.1636L10.9799 13.1706H11.1699L11.2332 13.1636L11.3247 13.1426L11.4724 13.0936L11.592 13.0236L11.6976 12.9467L11.7609 12.8767L11.8383 12.7787L11.9087 12.6457L11.9509 12.5268L11.979 12.3658V12.2188L11.9579 12.0789L11.9298 11.9949L11.8664 11.8619L11.7961 11.757L11.7398 11.694L11.6694 11.631L11.5709 11.561L11.4232 11.491L10.8392 11.3301L10.7266 11.2951L10.7196 11.3231L10.7407 11.421L10.7618 11.617V11.9249L10.7477 12.0649L10.7196 12.2328L10.6703 12.4638L10.6281 12.6107L10.5367 12.8487L10.4171 13.0866L10.3186 13.2406L10.2412 13.3455L10.1638 13.4435L10.0723 13.5415L9.95269 13.6535L9.8753 13.7095L9.84012 13.7374V13.8074L9.82605 14.0384L9.81901 14.3603V14.9341L9.82605 15.2071L9.84715 15.564L9.86826 15.8299L9.90344 16.1238L9.95269 16.4248L10.009 16.7467L10.1075 17.1526L10.1708 17.3625L10.2552 17.6144L10.3467 17.8524L10.4382 18.0623L10.5578 18.3003L10.6422 18.4472L10.7266 18.5872L10.8181 18.7272L10.9166 18.8671L11.0081 18.9861L11.1066 19.1051L11.1558 19.161L11.3176 19.322L11.4232 19.42L11.5217 19.504L11.6131 19.5669L11.7046 19.6019H11.8172L12.1057 19.5529L12.3378 19.504L12.6333 19.42L12.8655 19.343L13.1188 19.245L13.3299 19.154L13.4917 19.0701L13.6254 19.0001L13.7872 18.9091L13.935 18.8181L14.1179 18.6992L14.2516 18.6012L14.3712 18.5102L14.4697 18.4332L14.5401 18.3703L14.6174 18.3073L14.8989 18.0273L14.9622 17.9504L15.0255 17.8804L15.117 17.7684L15.1592 17.7124L15.2507 17.5865L15.3281 17.4675L15.4758 17.2155L15.5602 17.0336L15.6165 16.8936L15.6376 16.8306H15.6517L15.6025 17.0196L15.5954 17.0756L15.6165 17.1246L15.6939 17.2505L15.7502 17.3485L15.8628 17.5095L15.9613 17.6424L16.0387 17.7334L16.102 17.8104L16.2849 17.9923L16.3412 18.0413L16.4116 18.1043L16.5101 18.1813L16.6086 18.2513L16.7352 18.3283L16.8548 18.3842L17.0026 18.4472L17.1503 18.4892L17.2911 18.5172L17.4881 18.5382H17.671L17.861 18.5172L18.0791 18.4752L18.1987 18.4402L18.452 18.3423L18.5857 18.2723L18.6912 18.2093L18.8249 18.1113L18.9023 18.0483L18.9797 17.9714L19.043 17.8874L19.0711 17.8174L19.0852 17.7054L19.0993 17.5095V17.2855L19.0922 17.1246L19.0711 16.8376L19.05 16.6697L19.0078 16.3898L18.9586 16.1588L18.9445 16.0888L18.9797 16.1518L19.0711 16.4388L19.1274 16.6347L19.2048 16.9636L19.233 17.1456L19.2541 17.4045V17.9224L19.2681 17.9504L19.3455 18.0833L19.4159 18.1813L19.4722 18.2373L19.5707 18.3143L19.6832 18.3703L19.8099 18.4122L19.9436 18.4402L20.0632 18.4472H20.1687L20.2461 18.4402L20.2813 18.3982L20.3728 18.2443L20.4361 18.1113L20.5135 17.9154L20.5627 17.7264L20.5979 17.5305L20.619 17.3065V17.1246L20.6049 16.9356L20.5838 16.8027L20.5416 16.6067L20.5064 16.4947L20.429 16.2918L20.3516 16.1378L20.2813 16.0189L20.1969 15.8929L20.1265 15.8019L20.0702 15.7319L19.838 15.501L19.7817 15.452L19.6903 15.375L19.5003 15.2281L19.3807 15.1441L19.233 15.0461L19.1204 14.9761L18.9797 14.8852L18.8249 14.7872L18.7404 14.7312L18.7123 14.7242L18.6912 14.8432L18.6419 15.0391L18.5716 15.2491L18.5505 15.326H18.5364V15.0391L18.5434 14.9761L18.5716 14.7872L18.6138 14.6402L18.6982 14.4373L18.7686 14.3113L18.7967 14.3043L18.9937 14.3603L19.1274 14.3813H19.2611L19.2963 14.3743L19.3596 14.3533L19.4581 14.2973L19.5214 14.2413L19.5847 14.1713L19.6621 14.0314L19.7255 13.8844L19.7888 13.7235L19.9225 13.3805L19.9717 13.2056L20.0139 12.9606L20.0561 12.7927L20.1546 12.4918L20.1828 12.3448V12.1069L20.1546 11.9529L20.1054 11.792L20.0632 11.68L19.9999 11.561L19.9225 11.435L19.831 11.3161L19.7044 11.1901L19.5496 11.0641L19.4159 10.9802L19.2752 10.9032L19.0782 10.8262L18.9304 10.7842L18.7756 10.7632ZM15.5126 17.4419L15.5336 17.4489L15.6036 17.5681L15.6595 17.6522L15.7574 17.7853L15.8413 17.8835L15.9043 17.9606L16.0301 18.0867V18.1007L16.0581 18.1148L16.1071 18.1638L16.184 18.2269L16.2539 18.29L16.3658 18.3741L16.4847 18.4582L16.5896 18.5213L16.7015 18.5844L16.8693 18.6615L17.0022 18.7105L17.212 18.7666L17.3518 18.7946L17.5267 18.8157H17.7714L17.9532 18.7876L18.191 18.7316L18.3379 18.6825L18.5197 18.5984L18.6176 18.5423L18.7225 18.4722L18.8204 18.3951L18.9043 18.318L18.9393 18.297L18.9253 18.4722L18.8833 18.7035L18.8414 18.8577L18.7994 18.9628L18.7435 19.075L18.6945 19.1591L18.6106 19.2712L18.4777 19.4044L18.3239 19.5025L18.24 19.5446L18.0302 19.6147L17.8623 19.6497L17.5966 19.6708L17.3868 19.6637L17.226 19.6497L17.0581 19.6217L16.8763 19.5796L16.7085 19.5306L16.5686 19.4745L16.4567 19.4254L16.3448 19.3624L16.3588 19.3904L16.4287 19.4465L16.5406 19.5096L16.6595 19.5796L16.8343 19.6637L17.0302 19.7408L17.191 19.7829L17.4008 19.825L17.5686 19.846H17.8274L18.0302 19.8179L18.191 19.7829L18.3379 19.7338L18.4847 19.6567L18.5547 19.6077L18.6246 19.5446L18.6945 19.4745L18.7575 19.3834L18.7714 19.3764L18.7575 19.4535L18.7225 19.5867L18.6456 19.7689L18.5756 19.9021L18.5057 20.0072L18.4358 20.0983L18.3728 20.1684L18.2679 20.2735L18.156 20.3576L18.0302 20.4277L17.9253 20.4698L17.8274 20.4978L17.6665 20.5259L17.5896 20.5329H17.3029L17.1141 20.5118L16.9043 20.4768L16.7504 20.4347L16.5756 20.3717L16.4567 20.3226L16.4078 20.3016L16.4427 20.3366L16.5546 20.3997L16.7574 20.5048L16.9253 20.5749L17.0651 20.617L17.2679 20.666L17.4148 20.6871H17.6945L17.8763 20.659L18.0372 20.617L18.177 20.5609L18.2889 20.4978L18.3728 20.4417L18.4707 20.3576L18.4847 20.3506L18.4777 20.3857L18.3798 20.659L18.2539 20.9394L18.184 21.0585L18.1421 21.1216L18.1281 21.1497L18.149 21.1427L18.205 21.0655L18.2539 21.0165L18.3449 20.8973L18.4008 20.8202L18.4498 20.7431L18.5057 20.652L18.5756 20.5329L18.6386 20.4137L18.6526 20.3857H18.6665L18.7155 20.4488L18.7854 20.4978L18.8623 20.5329L18.9253 20.5539L18.9742 20.5609H19.1351L19.2819 20.5399L19.2749 20.5679L19.1561 20.9114L19.0582 21.1987L19.0022 21.3459L18.9393 21.3739L18.8064 21.409L18.5756 21.451L18.191 21.5071L17.9113 21.5352L17.5686 21.5562H17.0721L16.7854 21.5352L16.5686 21.5071L16.3308 21.4581L16.149 21.409L16.0022 21.3599L15.8273 21.2968L15.8133 21.2828L15.7854 21.1286L15.7224 20.9114L15.6665 20.7572L15.6036 20.624L15.5266 20.4838L15.4357 20.3506L15.3448 20.2385L15.2889 20.1684L15.2189 20.0913L15.156 20.0142L15.0931 19.9441L15.0161 19.846L14.9322 19.7408L14.8343 19.6077L14.7714 19.5236L14.6595 19.3624L14.5896 19.2502L14.5266 19.1521L14.4147 18.9628L14.3448 18.8367V18.8087L14.4077 18.7666L14.5126 18.6895L14.6245 18.5984L14.6944 18.5353L14.7504 18.4862L14.9392 18.297L14.9882 18.2409L15.0721 18.1428L15.142 18.0517L15.2259 17.9395L15.2959 17.8344L15.3588 17.7293L15.4497 17.5681L15.5126 17.4419ZM13.2329 10.77L13.0877 10.7562L12.9564 10.7769L12.8112 10.8115L12.7214 10.846L12.6107 10.9013L12.514 10.9635L12.4587 11.0049L12.3826 11.0671L12.272 11.1776L12.196 11.2674L12.1268 11.3641L12.0508 11.4885L11.9886 11.6059L11.9402 11.7303L11.9471 11.7441L12.2444 11.8339L12.5001 11.903L12.6868 11.9583L12.7628 11.9928L12.825 12.0412L12.8942 12.131L12.9426 12.2484L12.9702 12.3866V12.4557L12.9633 12.504L12.9357 12.6215L12.8942 12.7251L12.8389 12.8149L12.7767 12.884L12.7006 12.9462L12.6038 12.9945L12.5278 13.0152H12.4517L12.3342 12.9876L12.0577 12.9047L11.9471 12.8771L11.9264 12.8978L11.8641 12.9876L11.7812 13.0705L11.7051 13.1327L11.6706 13.1672L11.6913 13.2708L11.7397 13.4712L11.7881 13.6163L11.8849 13.8028L11.9471 13.8926L12.0093 13.9686L12.0923 14.0446L12.1614 14.0998L12.2513 14.1551L12.355 14.1966L12.5347 14.238L12.7006 14.2656L13.1154 14.3485L13.62 14.4591H13.786L13.9104 14.4314L14.0348 14.39L14.1109 14.3555L14.2491 14.2726L14.3666 14.1827L14.4842 14.0653L14.5326 14.01L14.5948 13.941L14.6777 13.8235L14.7469 13.713L14.816 13.5817L14.8782 13.4436L14.9543 13.2294L15.0026 13.0429L15.0441 12.8149L15.0649 12.6076V12.3382L15.051 12.1793L15.0234 12.0273L14.9819 11.8477L14.9197 11.6819L14.8506 11.5369L14.7814 11.4194L14.6985 11.302L14.6086 11.2122L14.5395 11.15L14.4565 11.0878L14.3805 11.0464L14.2491 10.998L14.0694 10.9566L13.7583 10.9013L13.5786 10.8598L13.385 10.8046L13.2329 10.77ZM19.0832 18.1619H19.0969L19.1517 18.2777L19.2066 18.3645L19.2889 18.4658L19.3506 18.5237L19.4466 18.5889L19.5357 18.625L19.6592 18.654L19.762 18.6684H19.8306L19.954 18.654H19.9952L20.002 18.6684L19.9814 18.8711L19.9472 19.0592L19.8786 19.2763L19.8237 19.3848L19.7757 19.45L19.7209 19.5078L19.6317 19.5657L19.5563 19.5947L19.522 19.6019H19.426L19.3643 19.5874L19.3026 19.5513L19.234 19.4861L19.186 19.421L19.138 19.298L19.1106 19.2039L19.09 19.0954L19.0763 18.9289V18.5816L19.0832 18.3501V18.1619ZM12.0126 11.8946L11.9792 11.8876L12.0126 11.971L12.0528 12.0961L12.0795 12.256V12.4089L12.0528 12.5687L12.026 12.6591L11.9859 12.7494L11.9925 12.7842L12.0996 12.8189L12.2668 12.8745L12.4207 12.9162H12.4876L12.5344 12.9023L12.6214 12.8467L12.6816 12.7842L12.7351 12.7077L12.7753 12.6104L12.802 12.4992V12.3811L12.7886 12.3116L12.7552 12.2212L12.7151 12.1587L12.6482 12.0961L12.5746 12.0683L12.1799 11.9502L12.0126 11.8946ZM18.9829 19.3962L19.0037 19.4034L19.0592 19.5185L19.1217 19.612L19.1842 19.6839L19.2605 19.7414L19.3369 19.7702L19.3855 19.7774H19.4618L19.566 19.763L19.6493 19.7343L19.7673 19.6695L19.8436 19.6048L19.8853 19.5688L19.8991 19.5832L19.8505 19.7055L19.7881 19.8493L19.7048 19.9932L19.6423 20.0795L19.566 20.173L19.4896 20.2521L19.3855 20.3313L19.2814 20.3888L19.1911 20.4176L19.1425 20.4248H19.0037L18.9274 20.396L18.8649 20.3528L18.8094 20.2953L18.7677 20.2306L18.7747 20.1658L18.8163 20.022L18.8857 19.763L18.9551 19.5113L18.9829 19.3962Z" fill="#FEFEFE"/>
</svg>
