<svg width="30" height="30" viewBox="0 0 30 30" fill="none" xmlns="http://www.w3.org/2000/svg">
<path d="M5.64868 7C5.26439 7 4.94415 7.33333 5.0082 7.69697L7.73022 23.3031C7.79427 23.6969 8.14653 24 8.59486 24H21.6286C21.9488 24 22.2049 23.7878 22.269 23.4849L24.9911 7.69697C25.0551 7.33333 24.7669 7 24.3506 7H5.64868ZM17.1132 18.2728H12.9501L11.8293 12.697H18.138L17.1132 18.2728Z" fill="#2684FF"/>
<path d="M24.1263 12.6969H18.1058L17.1132 18.2728H12.9501L8.01835 23.7878C8.01835 23.7878 8.24261 24 8.59486 24H21.6286C21.9488 24 22.2049 23.7878 22.269 23.4849L24.1263 12.6969Z" fill="url(#paint0_linear_120_343)"/>
<defs>
<linearGradient id="paint0_linear_120_343" x1="25.507" y1="14.2633" x2="15.9939" y2="22.1108" gradientUnits="userSpaceOnUse">
<stop offset="0.176" stop-color="#0052CC"/>
<stop offset="1" stop-color="#2684FF"/>
</linearGradient>
</defs>
</svg>
