<svg width="30" height="30" viewBox="0 0 30 30" fill="none" xmlns="http://www.w3.org/2000/svg">
<path d="M8.04846 5.41154C8.14697 5.16243 8.379 5 8.63638 5H21.3636C21.7152 5 22 5.29848 22 5.66667V12.3333C22 12.7015 21.7152 13 21.3636 13H16.5363L21.8137 18.5285C21.9957 18.7192 22.05 19.006 21.9515 19.2551C21.853 19.5043 21.621 19.6667 21.3636 19.6667H15.6364V24.3333C15.6364 24.6029 15.4813 24.846 15.2435 24.9492C15.0057 25.0524 14.732 24.9955 14.55 24.8048L8.1864 18.1381C8.06705 18.013 8.00001 17.8435 8.00001 17.6667V12.3333C8.00001 11.9651 8.28492 11.6667 8.63637 11.6667H13.4637L8.18641 6.13807C8.00441 5.94741 7.94996 5.66066 8.04846 5.41154Z" fill="#fff"/>
</svg>
