<svg width="30" height="30" viewBox="0 0 30 30" fill="none" xmlns="http://www.w3.org/2000/svg">
<path d="M22.2479 7H13.574C13.574 9.15595 15.3288 10.9108 17.4848 10.9108H19.0892V12.44C19.0892 14.596 20.844 16.3509 23 16.3509V7.75208C23 7.3259 22.6741 7 22.2479 7Z" fill="#1868DB"/>
<path d="M17.9609 11.3119H9.28701C9.28701 13.4678 11.0419 15.2226 13.1978 15.2226H14.8022V16.7769C14.8022 18.9329 16.5571 20.6877 18.713 20.6877V12.0639C18.713 11.6628 18.3871 11.3119 17.9609 11.3119Z" fill="#1868DB"/>
<path d="M13.6739 15.6491H5C5 17.8052 6.75483 19.5599 8.91077 19.5599H10.5152V21.0892C10.5152 23.2452 12.27 25 14.426 25V16.4013C14.426 15.9751 14.075 15.6491 13.6739 15.6491Z" fill="#1868DB"/>
</svg>
