<svg width="30" height="30" viewBox="0 0 30 30" fill="none" xmlns="http://www.w3.org/2000/svg">
<path d="M22.2216 16.6222C21.5238 16.6259 20.9174 16.7939 20.4096 17.0423C20.2233 16.6734 20.037 16.3446 20.0041 16.1035C19.9676 15.8222 19.9238 15.6505 19.9676 15.3144C20.0115 14.9783 20.2087 14.4998 20.2051 14.4633C20.2014 14.4267 20.1612 14.255 19.7594 14.2514C19.3576 14.2477 19.0105 14.3281 18.9703 14.434C18.9301 14.54 18.8534 14.7811 18.8023 15.0295C18.7329 15.3948 17.9986 16.6989 17.5785 17.3821C17.4433 17.1154 17.3264 16.8816 17.3009 16.6953C17.2643 16.414 17.2205 16.2423 17.2643 15.9062C17.3082 15.5701 17.5054 15.0916 17.5018 15.0551C17.4981 15.0185 17.458 14.8468 17.0561 14.8432C16.6543 14.8395 16.3072 14.9199 16.2671 15.0258C16.2269 15.1318 16.183 15.3802 16.099 15.6213C16.015 15.8624 15.0396 18.0396 14.7839 18.6022C14.6524 18.8908 14.5391 19.1209 14.4588 19.278C14.4588 19.278 14.4551 19.289 14.4442 19.3072C14.3748 19.4424 14.3346 19.5155 14.3346 19.5155C14.3346 19.5155 14.3346 19.5155 14.3346 19.5191C14.2798 19.6178 14.2213 19.7091 14.1921 19.7091C14.1702 19.7091 14.13 19.4461 14.1994 19.0881C14.3455 18.3319 14.6926 17.1556 14.6889 17.1154C14.6889 17.0935 14.7547 16.8889 14.4624 16.783C14.1775 16.677 14.0752 16.8524 14.0496 16.8524C14.0241 16.8524 14.0058 16.9145 14.0058 16.9145C14.0058 16.9145 14.3236 15.5921 13.3994 15.5921C12.8222 15.5921 12.0258 16.224 11.6313 16.7939C11.3829 16.9291 10.8532 17.2177 10.287 17.5282C10.0714 17.6487 9.84859 17.7693 9.64037 17.8825C9.62575 17.8679 9.61114 17.8497 9.59653 17.8351C8.47869 16.6405 6.41105 15.7966 6.49872 14.1929C6.5316 13.6084 6.73252 12.0741 10.4696 10.2111C13.5455 8.69505 15.9931 9.11515 16.4168 10.0467C17.0232 11.3764 15.1054 13.8459 11.9272 14.2039C10.7144 14.3391 10.0787 13.8715 9.918 13.6961C9.74996 13.5135 9.72439 13.5025 9.66229 13.539C9.56 13.5938 9.62575 13.7582 9.66229 13.8532C9.75727 14.1016 10.1481 14.54 10.8094 14.7555C11.3938 14.9455 12.8149 15.0514 14.5355 14.3865C16.4607 13.6413 17.9657 11.57 17.5237 9.83481C17.0817 8.07403 14.1592 7.49319 11.3938 8.47586C9.74996 9.06036 7.96726 9.98093 6.68503 11.1791C5.16169 12.6038 4.92059 13.8422 5.01922 14.361C5.37357 16.2021 7.91246 17.4003 8.92802 18.288C8.87687 18.3173 8.82938 18.3428 8.7892 18.3647C8.28142 18.6168 6.34529 19.6287 5.86308 20.6991C5.31512 21.9119 5.95076 22.7813 6.37086 22.8982C7.67501 23.2599 9.01569 22.6096 9.73535 21.5356C10.455 20.4616 10.3673 19.0661 10.0349 18.4268C10.0312 18.4195 10.0276 18.4122 10.0203 18.4049C10.1518 18.3282 10.287 18.2478 10.4185 18.1711C10.6778 18.0177 10.9336 17.8752 11.1527 17.7583C11.0285 18.0981 10.9372 18.5036 10.8934 19.0881C10.8386 19.7748 11.1199 20.6662 11.4888 21.0169C11.6532 21.1703 11.8468 21.174 11.971 21.174C12.4021 21.174 12.5957 20.816 12.8112 20.3922C13.0743 19.8735 13.3117 19.2707 13.3117 19.2707C13.3117 19.2707 13.0158 20.9 13.8195 20.9C14.1117 20.9 14.4076 20.5201 14.5391 20.3264V20.3301C14.5391 20.3301 14.5464 20.3191 14.5611 20.2936C14.5903 20.2461 14.6086 20.2169 14.6086 20.2169V20.2095C14.7255 20.005 14.9885 19.541 15.3794 18.7702C15.8835 17.7766 16.3693 16.5346 16.3693 16.5346C16.3693 16.5346 16.4132 16.8378 16.5629 17.3419C16.6506 17.6378 16.8333 17.9629 16.9794 18.2771C16.8625 18.4415 16.7894 18.5328 16.7894 18.5328C16.7894 18.5328 16.7894 18.5328 16.7931 18.5364C16.6981 18.6606 16.5958 18.7958 16.4826 18.9273C16.0844 19.4022 15.6095 19.9465 15.5437 20.1036C15.467 20.2899 15.4853 20.4251 15.6314 20.5347C15.7374 20.615 15.9273 20.626 16.1209 20.615C16.4789 20.5895 16.731 20.5018 16.8552 20.447C17.0488 20.3776 17.2753 20.2717 17.4872 20.1146C17.8781 19.826 18.1155 19.4132 18.0936 18.8689C18.0826 18.5693 17.984 18.2698 17.8634 17.9885C17.9 17.9373 17.9329 17.8862 17.9694 17.8351C18.5868 16.9327 19.0653 15.9428 19.0653 15.9428C19.0653 15.9428 19.1091 16.246 19.2589 16.7501C19.332 17.0058 19.4818 17.2834 19.6133 17.5538C19.0324 18.025 18.6744 18.573 18.5466 18.931C18.3164 19.5958 18.4954 19.8954 18.8352 19.9648C18.9886 19.9977 19.2078 19.9246 19.3685 19.8552C19.5731 19.7894 19.8142 19.6762 20.0443 19.5082C20.4352 19.2196 20.8115 18.8177 20.7896 18.2734C20.7786 18.025 20.7128 17.7803 20.6215 17.5428C21.1147 17.3382 21.7503 17.225 22.5613 17.32C24.3002 17.5245 24.6436 18.6095 24.5778 19.0661C24.512 19.5228 24.1467 19.7712 24.0262 19.8479C23.9056 19.9246 23.8655 19.9502 23.8764 20.005C23.891 20.0853 23.9495 20.0817 24.0518 20.0671C24.1942 20.0415 24.965 19.6981 24.9979 18.8579C25.0527 17.7839 24.0298 16.6113 22.2216 16.6222ZM8.80746 21.1447C8.23028 21.7731 7.4266 22.0105 7.07956 21.8096C6.70695 21.5941 6.85307 20.6662 7.56177 20.0013C7.99283 19.5958 8.5481 19.2196 8.91706 18.9894C9.00108 18.9383 9.12528 18.8652 9.27506 18.7739C9.30063 18.7593 9.31524 18.752 9.31524 18.752C9.34447 18.7337 9.37369 18.7154 9.40292 18.6972C9.66229 19.647 9.41388 20.4835 8.80746 21.1447ZM13.0085 18.288C12.8076 18.7775 12.3875 20.0305 12.1318 19.9611C11.9126 19.9027 11.7774 18.9529 12.0879 18.0141C12.245 17.5428 12.5774 16.9802 12.7711 16.761C13.0852 16.4103 13.4323 16.2935 13.5163 16.4359C13.6222 16.6222 13.1327 17.9812 13.0085 18.288ZM16.4753 19.9465C16.3913 19.9904 16.3109 20.0196 16.2744 19.9977C16.2488 19.9831 16.3109 19.9246 16.3109 19.9246C16.3109 19.9246 16.7456 19.457 16.9173 19.2451C17.0159 19.1209 17.1328 18.9748 17.257 18.8104V18.8579C17.257 19.4168 16.7164 19.7931 16.4753 19.9465ZM19.1493 19.3365C19.0872 19.2926 19.0982 19.1465 19.3064 18.6899C19.3868 18.5109 19.5767 18.2113 19.9019 17.9227C19.9384 18.0396 19.964 18.1529 19.9603 18.2588C19.9567 18.9639 19.4525 19.2269 19.1493 19.3365Z" fill="#CD6799"/>
</svg>
