<svg width="30" height="30" viewBox="0 0 30 30" fill="none" xmlns="http://www.w3.org/2000/svg">
<path d="M15.1021 6.00029C15.143 6.00039 15.1839 6.00049 15.226 6.00059C15.825 6.003 16.405 6.02095 16.9906 6.1573C17.033 6.16672 17.0753 6.17614 17.119 6.18584C18.7939 6.56489 20.2394 7.35402 21.4899 8.52739C21.5133 8.54918 21.5366 8.57097 21.5607 8.59343C22.1751 9.17053 22.6863 9.83063 23.1001 10.5657C23.1185 10.5978 23.1369 10.6298 23.1558 10.6629C23.405 11.1019 23.616 11.546 23.7898 12.0203C23.8057 12.0634 23.8215 12.1064 23.8378 12.1507C23.9249 12.3982 23.9778 12.6268 24 12.8884C23.9152 12.761 23.8572 12.6383 23.7984 12.4978C23.2522 11.1929 22.3655 10.1096 21.3952 9.09621C21.3952 9.19404 21.5353 9.29306 21.5964 9.35692C22.5239 10.3588 23.1895 11.6502 23.479 12.9832C23.495 13.0545 23.495 13.0545 23.5112 13.1272C23.7646 14.4715 23.4763 15.872 22.7107 17.003C21.9872 18.0173 21.0457 18.8098 19.7938 19.0358C17.6453 19.2404 15.7974 17.9101 14.1133 16.758C13.2319 16.1488 13.2319 16.1488 12.3048 15.614C12.2695 15.5949 12.2342 15.5758 12.1978 15.5562C11.7232 15.3074 11.2075 15.1455 10.6768 15.3058C10.3133 15.5766 10.1034 15.9013 10.0285 16.3487C9.85431 19.0415 11.0828 21.7947 12.5387 23.9804C12.261 23.9532 12.0267 23.8751 11.7691 23.77C11.7074 23.745 11.7074 23.745 11.6445 23.7196C9.92692 23.0068 8.43357 21.8024 7.42369 20.2356C7.40631 20.2087 7.38894 20.1818 7.37103 20.1541C6.93472 19.4717 6.51995 18.7071 6.33439 17.9129C6.35002 17.866 6.36565 17.8191 6.38175 17.7707C6.39312 17.7962 6.40449 17.8216 6.41621 17.8478C6.91808 18.9605 7.54702 19.9206 8.38293 20.8076C8.52258 20.9558 8.65576 21.1092 8.78735 21.2646C8.80622 21.2848 8.82508 21.305 8.84452 21.3259C8.86015 21.3259 8.87578 21.3259 8.89188 21.3259C8.86428 21.2976 8.83669 21.2693 8.80826 21.2401C7.56575 19.9242 6.6476 18.0909 6.66592 16.2539C6.71304 14.8494 7.25934 13.6622 8.22883 12.6513C8.26344 12.6143 8.29806 12.5772 8.33372 12.539C9.0083 11.8353 9.86277 11.424 10.8388 11.3965C11.3821 11.3919 11.8801 11.4387 12.3966 11.6085C12.428 11.6187 12.4593 11.6288 12.4917 11.6393C13.5603 11.9939 14.5351 12.5952 15.4624 13.2225C15.5842 13.3049 15.7063 13.3869 15.8284 13.4688C15.9878 13.5757 16.1471 13.6827 16.3064 13.7898C17.7316 14.8695 17.7316 14.8695 19.4034 15.1942C19.738 15.0963 19.947 14.842 20.1244 14.5517C20.2877 14.1902 20.2598 13.7478 20.1342 13.3801C19.9043 12.8259 19.605 12.3082 19.1218 11.9403C19.1401 11.9656 19.1585 11.9909 19.1773 12.017C19.4958 12.473 19.6789 12.8893 19.5954 13.4572C19.4823 13.7569 19.252 13.9899 18.9631 14.1258C18.4599 14.2959 17.9226 14.1078 17.4652 13.8857C17.3667 13.8344 17.2694 13.7814 17.1724 13.7273C17.1359 13.707 17.0994 13.6866 17.0618 13.6657C16.5894 13.3969 16.1445 13.0867 15.697 12.7787C15.1826 12.4256 14.6675 12.0757 14.1371 11.7468C14.0975 11.7223 14.0579 11.6977 14.017 11.6724C13.0405 11.0729 11.9103 10.4724 10.739 10.4235C10.6709 10.4198 10.6709 10.4198 10.6015 10.4161C9.55438 10.3856 8.60608 10.7825 7.84106 11.4811C7.74765 11.5694 7.65636 11.6595 7.56577 11.7507C7.54325 11.7731 7.52072 11.7956 7.49751 11.8187C6.76194 12.5589 6.31374 13.4487 6.05022 14.4526C6.0346 14.4526 6.01897 14.4526 6.00286 14.4526C5.98891 14.0993 6.02682 13.7734 6.09759 13.4275C6.10807 13.3762 6.11856 13.3249 6.12937 13.2721C6.57791 11.1818 7.72253 9.27748 9.41285 7.95857C9.45271 7.92746 9.45271 7.92746 9.49337 7.89573C9.93305 7.55547 10.3873 7.26572 10.881 7.01054C10.9126 6.99411 10.9442 6.97768 10.9768 6.96075C11.7808 6.54843 12.6436 6.26604 13.5332 6.1099C13.5798 6.1015 13.6263 6.09309 13.6742 6.08443C14.151 6.0066 14.62 5.99812 15.1021 6.00029Z" fill="#1868DB"/>
<path d="M14.494 20.0888C14.5374 20.0893 14.5808 20.0899 14.6255 20.0905C14.669 20.0909 14.7126 20.0913 14.7574 20.0918C14.7911 20.0923 14.8247 20.0929 14.8593 20.0934C14.9246 20.3028 14.9897 20.5121 15.0547 20.7215C15.0644 20.7525 15.074 20.7836 15.084 20.8155C15.2213 21.2576 15.3567 21.7001 15.4862 22.1445C15.5257 22.3178 15.5257 22.3178 15.6171 22.4635C15.9453 21.3138 15.9453 21.3138 16.2802 20.1408C16.5459 20.1408 16.8116 20.1408 17.0853 20.1408C17.0505 20.3849 17.0069 20.5926 16.929 20.8221C16.918 20.8553 16.9069 20.8885 16.8956 20.9227C16.8595 21.0313 16.8229 21.1398 16.7863 21.2483C16.761 21.3241 16.7357 21.3999 16.7104 21.4757C16.6576 21.6341 16.6045 21.7924 16.5513 21.9506C16.4831 22.1537 16.4152 22.3568 16.3473 22.56C16.2826 22.7538 16.2178 22.9476 16.1529 23.1414C16.1405 23.1784 16.1281 23.2155 16.1154 23.2536C16.0804 23.358 16.0453 23.4624 16.0103 23.5668C15.9999 23.5978 15.9895 23.6289 15.9788 23.6609C15.9418 23.7706 15.9057 23.8767 15.8539 23.9804C15.6664 23.9804 15.4788 23.9804 15.2856 23.9804C15.0277 23.2279 14.7969 22.4689 14.5752 21.7051C14.3818 22.3004 14.2048 22.8994 14.0366 23.5024C14.0211 23.5576 14.0056 23.6128 13.9896 23.6697C13.9758 23.7193 13.962 23.7689 13.9478 23.82C13.9121 23.933 13.9121 23.933 13.8648 23.9804C13.7691 23.9838 13.6734 23.9843 13.5776 23.9833C13.5253 23.9829 13.473 23.9825 13.4191 23.982C13.3786 23.9815 13.3381 23.9809 13.2964 23.9804C12.607 21.8243 12.607 21.8243 12.3353 20.958C12.315 20.8933 12.2947 20.8286 12.2743 20.764C12.2464 20.6755 12.2187 20.5869 12.191 20.4984C12.1681 20.4251 12.1681 20.4251 12.1446 20.3503C12.1124 20.2356 12.1124 20.2356 12.1124 20.1408C12.3781 20.1408 12.6438 20.1408 12.9176 20.1408C13.0234 20.4143 13.1136 20.6889 13.1962 20.9702C13.2214 21.0551 13.2466 21.1401 13.2718 21.225C13.3111 21.3578 13.3502 21.4905 13.3894 21.6233C13.4275 21.7522 13.4657 21.8811 13.504 22.01C13.5216 22.0701 13.5216 22.0701 13.5396 22.1314C13.5808 22.3117 13.5808 22.3117 13.6753 22.4635C13.6835 22.4345 13.6917 22.4055 13.7002 22.3757C13.7853 22.075 13.8706 21.7743 13.956 21.4738C13.9879 21.3614 14.0197 21.2491 14.0515 21.1368C14.0971 20.9756 14.1429 20.8146 14.1887 20.6535C14.203 20.603 14.2172 20.5524 14.2319 20.5003C14.2452 20.4538 14.2585 20.4073 14.2721 20.3594C14.2896 20.2977 14.2896 20.2977 14.3075 20.2347C14.3504 20.1044 14.3544 20.0948 14.494 20.0888Z" fill="#1868DB"/>
<path d="M19.2166 20.2356C19.3675 20.3423 19.3675 20.3423 19.4534 20.4252C19.3825 20.6381 19.2718 20.8271 19.1218 20.9941C19.0271 20.9941 19.0271 20.9941 18.9324 20.9022C18.9011 20.87 18.8699 20.8377 18.8377 20.8044C18.686 20.7285 18.5287 20.7339 18.3641 20.757C18.2396 20.8263 18.2396 20.8263 18.1746 20.9467C18.1391 21.0889 18.1391 21.0889 18.1746 21.2311C18.3288 21.3786 18.4935 21.4653 18.6849 21.5528C19.3354 21.851 19.3354 21.851 19.5007 22.1791C19.6343 22.5847 19.6285 23.0006 19.4441 23.3884C19.2762 23.6661 19.0614 23.8605 18.7496 23.9615C18.3634 24.0334 18.0075 24.0149 17.6646 23.8172C17.4613 23.6751 17.2727 23.5327 17.1839 23.2953C17.18 23.1745 17.18 23.1745 17.2533 23.0701C17.2877 23.0381 17.3222 23.0061 17.3576 22.9731C17.3916 22.9406 17.4255 22.9081 17.4605 22.8746C17.5589 22.7953 17.5589 22.7953 17.701 22.7479C17.7217 22.7865 17.7217 22.7865 17.7428 22.8259C17.8704 23.0488 17.9652 23.1907 18.222 23.2693C18.3912 23.266 18.4773 23.2422 18.6157 23.1449C18.7232 22.9935 18.7397 22.8854 18.7429 22.7005C18.6401 22.449 18.468 22.3791 18.2338 22.2739C17.5117 21.9422 17.5117 21.9422 17.3532 21.5805C17.2661 21.2654 17.2786 20.9064 17.4118 20.606C17.821 19.9346 18.5631 19.9151 19.2166 20.2356Z" fill="#1868DB"/>
<path d="M20.2585 20.1408C20.5242 20.1408 20.7899 20.1408 21.0636 20.1408C21.0636 21.1732 21.0636 22.2056 21.0636 23.2693C21.3918 23.2693 21.72 23.2693 22.0582 23.2693C22.0582 23.504 22.0582 23.7386 22.0582 23.9804C21.4643 23.9804 20.8704 23.9804 20.2585 23.9804C20.2585 22.7133 20.2585 21.4463 20.2585 20.1408Z" fill="#1868DB"/>
</svg>
