<svg width="647" height="525" viewBox="0 0 647 525" fill="none" xmlns="http://www.w3.org/2000/svg">
<path d="M194.043 7.99999C219.871 -6.91135 252.897 1.93771 267.808 27.7654L434.308 316.152C434.331 316.192 434.354 316.232 434.377 316.272L305.839 93.6388L271.199 113.638L244.667 67.6839C234.726 50.4656 212.709 44.5663 195.49 54.507L109.754 104.007L289.754 415.776L324.79 395.548L344.29 429.323L390.659 402.552C409.791 391.506 416.346 367.042 405.3 347.911L382.308 361.186C394.078 350.006 397.144 331.849 388.702 317.161L421.666 374.257C433.53 367.408 440.554 355.398 441.547 342.7C441.687 361.503 431.99 379.844 414.542 389.918L248.265 485.918C222.438 500.829 189.411 491.98 174.5 466.152L7.99978 177.766C-6.91191 151.938 1.93819 118.912 27.766 104L194.043 7.99999ZM436.307 319.616C440.504 326.884 442.156 334.921 441.547 342.7C441.481 333.713 439.168 324.619 434.377 316.272L436.307 319.616ZM382.308 361.186C380.286 363.105 378.01 364.822 375.489 366.277L324.79 395.548L324.29 394.682L382.308 361.186ZM62.8545 128.775C45.6359 138.716 39.7364 160.733 49.6775 177.952L193.677 427.368C203.618 444.586 225.635 450.485 242.854 440.545L265.371 427.544L85.3711 115.775L62.8545 128.775ZM388.667 317.099C388.679 317.12 388.69 317.141 388.702 317.161L271.199 113.638L388.667 317.099Z" fill="white"/>
<path d="M398.888 39.5414C424.716 24.6297 457.742 33.4789 472.654 59.3067L639.154 347.693C654.065 373.521 645.216 406.547 619.388 421.459L453.111 517.459C427.284 532.37 394.258 523.521 379.346 497.693L212.846 209.307C197.934 183.479 206.784 150.453 232.611 135.541L398.888 39.5414ZM376.911 177.552C372.837 175.6 369.338 176.267 366.412 179.552C365.78 185.266 366.113 190.933 367.412 196.552C373.015 212.719 380.515 227.887 389.912 242.052C386.605 250.161 382.938 257.996 378.912 265.552C371.625 260.272 368.124 261.94 368.411 270.553C370.261 273.73 372.095 276.895 373.911 280.052C371.129 288.605 367.129 296.438 361.911 303.552C359.466 301.774 356.801 300.441 353.912 299.552C349.334 300.92 347.833 303.92 349.411 308.552C351.046 311.684 352.88 314.684 354.912 317.552C349.96 325.791 345.792 334.459 342.411 343.553C340.715 351.916 342.216 359.582 346.911 366.552C347.578 367.885 348.245 367.885 348.912 366.552C368.005 340.624 387.67 315.124 407.911 290.052C413.438 289.874 417.938 292.041 421.411 296.553C431.744 310.886 442.079 325.219 452.412 339.552C453.079 340.552 453.079 341.552 452.412 342.552C446.993 353.149 442.16 363.982 437.912 375.052C439.191 380.736 441.524 385.903 444.911 390.553C447.69 387.326 450.691 384.325 453.912 381.552C459.408 375.223 465.407 369.389 471.911 364.052C474.062 365.169 476.397 365.836 478.912 366.052C479.345 363.88 479.678 361.713 479.912 359.552C491.405 354.498 503.405 351.498 515.911 350.552C511.041 346.847 507.04 342.347 503.911 337.052C492.538 336.152 481.206 334.819 469.912 333.052C459.857 317.443 451.523 300.943 444.911 283.552C443.621 282.994 442.788 281.994 442.411 280.553C441.601 276.695 441.769 273.028 442.912 269.552C443.702 268.258 444.701 267.091 445.911 266.052C474.425 261.728 503.093 258.895 531.912 257.552C536.505 257.187 540.838 256.188 544.911 254.553C537.311 243.243 526.645 236.742 512.912 235.052C508.21 234.88 503.544 234.381 498.912 233.553C496.215 226.705 491.214 223.704 483.911 224.552C483.675 227.661 484.009 230.661 484.912 233.552C483.278 234.213 481.444 234.546 479.411 234.552C472.402 234.123 465.57 233.456 458.912 232.552C456.535 228.335 453.534 224.502 449.911 221.053C447.018 219.904 444.018 219.403 440.911 219.552C440.834 223.267 441.167 226.933 441.911 230.552C432.834 229.779 423.834 228.446 414.911 226.552C407.215 215.354 399.715 204.021 392.411 192.552C388.01 186.649 382.843 181.649 376.911 177.552Z" fill="white"/>
</svg>
