<svg xmlns="http://www.w3.org/2000/svg" version="1.1" width="1536px" height="1024px" style="shape-rendering:geometricPrecision; text-rendering:geometricPrecision; image-rendering:optimizeQuality; fill-rule:evenodd; clip-rule:evenodd" xmlns:xlink="http://www.w3.org/1999/xlink">
<g><path style="opacity:1" fill="#000000" d="M -0.5,-0.5 C 511.5,-0.5 1023.5,-0.5 1535.5,-0.5C 1535.5,340.833 1535.5,682.167 1535.5,1023.5C 1023.5,1023.5 511.5,1023.5 -0.5,1023.5C -0.5,682.167 -0.5,340.833 -0.5,-0.5 Z"/></g>
<g><path style="opacity:1" fill="#010000" d="M 912.5,469.5 C 987.964,547.465 1063.63,625.298 1139.5,703C 1139.27,703.399 1138.94,703.565 1138.5,703.5C 1073.83,703.667 1009.17,703.5 944.5,703C 867.784,618.445 789.784,534.945 710.5,452.5C 741.753,421.582 773.086,390.582 804.5,359.5C 840.883,395.882 876.883,432.549 912.5,469.5 Z"/></g>
<g><path style="opacity:1" fill="#d1222a" d="M 624.5,362.5 C 549.331,362.167 474.331,362.501 399.5,363.5C 398.957,363.44 398.624,363.107 398.5,362.5C 473.999,361.168 549.332,361.168 624.5,362.5 Z"/></g>
<g><path style="opacity:1" fill="#851d24" d="M 990.5,386.5 C 989.833,386.5 989.5,386.833 989.5,387.5C 987.35,385.24 985.183,382.907 983,380.5C 982.333,379.833 982.333,379.167 983,378.5C 985.705,381.036 988.205,383.703 990.5,386.5 Z"/></g>
<g><path style="opacity:1" fill="#f0202c" d="M 932.5,463.5 C 928.267,463.482 925.433,461.149 924,456.5C 923.667,457.5 923.333,458.5 923,459.5C 922.149,456.388 920.983,456.054 919.5,458.5C 919.08,456.674 919.08,454.674 919.5,452.5C 917.876,452.36 916.71,453.027 916,454.5C 915.085,453.672 914.419,452.672 914,451.5C 913.333,452.833 912.667,454.167 912,455.5C 911.361,452.772 910.194,452.272 908.5,454C 910.481,454.605 910.815,455.605 909.5,457C 910.167,458.667 910.833,460.333 911.5,462C 910.833,462.333 910.167,462.667 909.5,463C 910.667,463.5 911.5,464.333 912,465.5C 912.805,463.099 913.638,463.266 914.5,466C 913.027,466.71 912.36,467.876 912.5,469.5C 876.883,432.549 840.883,395.882 804.5,359.5C 773.086,390.582 741.753,421.582 710.5,452.5C 789.784,534.945 867.784,618.445 944.5,703C 1009.17,703.5 1073.83,703.667 1138.5,703.5C 1071.32,704.128 1010.66,704.795 956.5,705.5C 956.719,706.675 956.386,707.675 955.5,708.5C 952.436,709.121 949.436,709.955 946.5,711C 948.23,712.852 949.396,712.686 950,710.5C 950.5,711 951,711.5 951.5,712C 951.596,713.373 951.43,714.873 951,716.5C 952.255,717.211 953.421,718.044 954.5,719C 951.536,719.569 948.87,718.902 946.5,717C 947.715,714.904 948.549,715.071 949,717.5C 949.732,715.294 949.065,713.628 947,712.5C 946.333,713.833 945.667,713.833 945,712.5C 944.333,715.167 943.667,715.167 943,712.5C 942.333,716.5 941.667,716.5 941,712.5C 940.029,713.198 938.863,713.198 937.5,712.5C 935.444,713.048 933.777,714.214 932.5,716C 933.973,716.71 934.64,717.876 934.5,719.5C 936.355,719.272 937.188,719.939 937,721.5C 935,720.167 933,720.167 931,721.5C 931.374,719.231 931.374,716.898 931,714.5C 930,714.833 929,715.167 928,715.5C 927.016,713.205 926.183,713.539 925.5,716.5C 926.986,718.302 927.986,720.302 928.5,722.5C 925.57,723.786 916.57,723.953 901.5,723C 904.833,722.667 908.167,722.333 911.5,722C 910.692,721.692 910.025,721.192 909.5,720.5C 911.108,719.682 912.775,719.015 914.5,718.5C 917.103,719.562 919.77,719.728 922.5,719C 922.167,718.667 921.833,718.333 921.5,718C 922.308,717.692 922.975,717.192 923.5,716.5C 922.471,716.704 921.471,716.204 920.5,715C 921.833,714.667 923.167,714.333 924.5,714C 923.069,713.535 921.903,712.701 921,711.5C 920.282,712.451 919.449,712.617 918.5,712C 917.853,710.391 917.02,708.891 916,707.5C 915,708.833 914,708.833 913,707.5C 912.761,705.275 913.595,704.942 915.5,706.5C 920.781,705.714 926.115,705.214 931.5,705C 874.999,704.833 818.665,704.333 762.5,703.5C 820.837,703.833 879.17,703.5 937.5,702.5C 937.376,701.893 937.043,701.56 936.5,701.5C 856.84,623.006 778.006,543.673 700,463.5C 670.014,492.319 640.514,521.652 611.5,551.5C 623.188,563.521 634.855,575.521 646.5,587.5C 645.526,588.635 644.359,589.635 643,590.5C 640.677,588.011 638.177,585.678 635.5,583.5C 633.89,582.448 632.223,582.448 630.5,583.5C 629.353,583.182 628.519,582.516 628,581.5C 627.316,582.784 627.483,583.951 628.5,585C 625.813,586.341 624.147,588.007 623.5,590C 624.464,591.725 625.131,593.559 625.5,595.5C 615.494,586.161 605.827,576.494 596.5,566.5C 575.89,585.443 555.89,605.109 536.5,625.5C 566.355,657.719 594.022,690.219 619.5,723C 586.425,695.43 554.091,666.93 522.5,637.5C 494.116,665.22 465.449,692.553 436.5,719.5C 436.167,719.5 435.833,719.5 435.5,719.5C 462.478,690.187 489.478,660.853 516.5,631.5C 492.263,608.765 468.43,585.432 445,561.5C 395.072,610.432 344.239,658.265 292.5,705C 284.371,711.46 276.537,718.294 269,725.5C 268.833,725.167 268.667,724.833 268.5,724.5C 313.406,672.422 359.24,621.089 406,570.5C 418.318,557.015 431.151,544.015 444.5,531.5C 472.833,560.167 501.167,588.833 529.5,617.5C 549.169,597.83 568.503,577.83 587.5,557.5C 578.851,547.684 570.018,538.017 561,528.5C 507.327,473.327 453.493,418.327 399.5,363.5C 474.331,362.501 549.331,362.167 624.5,362.5C 649.812,388.813 675.145,415.146 700.5,441.5C 735.541,406.292 770.375,370.959 805,335.5C 847.701,378.035 890.201,420.701 932.5,463.5 Z"/></g>
<g><path style="opacity:1" fill="#010000" d="M 619.5,379.5 C 643.709,403.208 667.043,427.708 689.5,453C 660.346,482.821 631.179,512.655 602,542.5C 547.884,488.217 493.718,434.217 439.5,380.5C 499.331,379.501 559.331,379.168 619.5,379.5 Z"/></g>
<g><path style="opacity:1" fill="#220408" d="M 619.5,379.5 C 559.331,379.168 499.331,379.501 439.5,380.5C 438.957,380.44 438.624,380.107 438.5,379.5C 498.999,378.168 559.332,378.168 619.5,379.5 Z"/></g>
<g><path style="opacity:1" fill="#000000" d="M 936.5,701.5 C 878.669,702.499 820.669,702.832 762.5,702.5C 723.833,664.167 685.167,625.833 646.5,587.5C 634.855,575.521 623.188,563.521 611.5,551.5C 640.514,521.652 670.014,492.319 700,463.5C 778.006,543.673 856.84,623.006 936.5,701.5 Z"/></g>
<g><path style="opacity:1" fill="#f0202b" d="M 990.5,386.5 C 1055.08,450.245 1119.24,514.578 1183,579.5C 1226.6,626.265 1268.44,674.431 1308.5,724C 1307.83,724.667 1307.17,724.667 1306.5,724C 1191.08,620.431 1085.41,508.265 989.5,387.5C 989.5,386.833 989.833,386.5 990.5,386.5 Z"/></g>
<g><path style="opacity:1" fill="#ef1f2b" d="M 932.5,463.5 C 1019.59,550.587 1106.25,637.921 1192.5,725.5C 1045.83,726.667 899.168,726.833 752.5,726C 710.327,682.327 667.994,638.827 625.5,595.5C 625.131,593.559 624.464,591.725 623.5,590C 624.147,588.007 625.813,586.341 628.5,585C 627.483,583.951 627.316,582.784 628,581.5C 628.519,582.516 629.353,583.182 630.5,583.5C 632.223,582.448 633.89,582.448 635.5,583.5C 638.177,585.678 640.677,588.011 643,590.5C 644.359,589.635 645.526,588.635 646.5,587.5C 685.167,625.833 723.833,664.167 762.5,702.5C 762.5,702.833 762.5,703.167 762.5,703.5C 818.665,704.333 874.999,704.833 931.5,705C 926.115,705.214 920.781,705.714 915.5,706.5C 913.595,704.942 912.761,705.275 913,707.5C 914,708.833 915,708.833 916,707.5C 917.02,708.891 917.853,710.391 918.5,712C 919.449,712.617 920.282,712.451 921,711.5C 921.903,712.701 923.069,713.535 924.5,714C 923.167,714.333 921.833,714.667 920.5,715C 921.471,716.204 922.471,716.704 923.5,716.5C 922.975,717.192 922.308,717.692 921.5,718C 921.833,718.333 922.167,718.667 922.5,719C 919.77,719.728 917.103,719.562 914.5,718.5C 912.775,719.015 911.108,719.682 909.5,720.5C 910.025,721.192 910.692,721.692 911.5,722C 908.167,722.333 904.833,722.667 901.5,723C 916.57,723.953 925.57,723.786 928.5,722.5C 927.986,720.302 926.986,718.302 925.5,716.5C 926.183,713.539 927.016,713.205 928,715.5C 929,715.167 930,714.833 931,714.5C 931.374,716.898 931.374,719.231 931,721.5C 933,720.167 935,720.167 937,721.5C 937.188,719.939 936.355,719.272 934.5,719.5C 934.64,717.876 933.973,716.71 932.5,716C 933.777,714.214 935.444,713.048 937.5,712.5C 938.863,713.198 940.029,713.198 941,712.5C 941.667,716.5 942.333,716.5 943,712.5C 943.667,715.167 944.333,715.167 945,712.5C 945.667,713.833 946.333,713.833 947,712.5C 949.065,713.628 949.732,715.294 949,717.5C 948.549,715.071 947.715,714.904 946.5,717C 948.87,718.902 951.536,719.569 954.5,719C 953.421,718.044 952.255,717.211 951,716.5C 951.43,714.873 951.596,713.373 951.5,712C 951,711.5 950.5,711 950,710.5C 949.396,712.686 948.23,712.852 946.5,711C 949.436,709.955 952.436,709.121 955.5,708.5C 956.386,707.675 956.719,706.675 956.5,705.5C 1010.66,704.795 1071.32,704.128 1138.5,703.5C 1138.94,703.565 1139.27,703.399 1139.5,703C 1063.63,625.298 987.964,547.465 912.5,469.5C 912.36,467.876 913.027,466.71 914.5,466C 913.638,463.266 912.805,463.099 912,465.5C 911.5,464.333 910.667,463.5 909.5,463C 910.167,462.667 910.833,462.333 911.5,462C 910.833,460.333 910.167,458.667 909.5,457C 910.815,455.605 910.481,454.605 908.5,454C 910.194,452.272 911.361,452.772 912,455.5C 912.667,454.167 913.333,452.833 914,451.5C 914.419,452.672 915.085,453.672 916,454.5C 916.71,453.027 917.876,452.36 919.5,452.5C 919.08,454.674 919.08,456.674 919.5,458.5C 920.983,456.054 922.149,456.388 923,459.5C 923.333,458.5 923.667,457.5 924,456.5C 925.433,461.149 928.267,463.482 932.5,463.5 Z"/></g>
<g><path style="opacity:1" fill="#420a0c" d="M 936.5,701.5 C 937.043,701.56 937.376,701.893 937.5,702.5C 879.17,703.5 820.837,703.833 762.5,703.5C 762.5,703.167 762.5,702.833 762.5,702.5C 820.669,702.832 878.669,702.499 936.5,701.5 Z"/></g>
<g><path style="opacity:1" fill="#891c24" d="M 435.5,719.5 C 435.833,719.5 436.167,719.5 436.5,719.5C 434.798,722.395 432.464,724.228 429.5,725C 431.37,722.96 433.37,721.127 435.5,719.5 Z"/></g>
</svg>
