<svg width="15" height="15" viewBox="0 0 15 15" fill="none" xmlns="http://www.w3.org/2000/svg">
<path d="M13.3217 7.32243C13.1233 3.9391 10.0492 1.3316 6.50834 1.91494C4.07 2.31744 2.11584 4.29493 1.73667 6.73326C1.51501 8.14493 1.80669 9.48076 2.44252 10.5833L1.92335 12.5141C1.80668 12.9516 2.20917 13.3483 2.64083 13.2258L4.54251 12.7008C5.40584 13.2083 6.415 13.4999 7.49417 13.4999C10.7842 13.4999 13.5142 10.6008 13.3217 7.32243ZM10.3467 9.8366C10.2942 9.9416 10.23 10.0408 10.1483 10.1341C10.0025 10.2916 9.84499 10.4083 9.66999 10.4783C9.49499 10.5541 9.30251 10.5891 9.09834 10.5891C8.80084 10.5891 8.48 10.5191 8.1475 10.3733C7.80917 10.2274 7.47669 10.0349 7.14419 9.79576C6.80585 9.55076 6.49084 9.2766 6.18751 8.9791C5.88418 8.67576 5.61583 8.35492 5.37083 8.02242C5.13166 7.68992 4.93917 7.35743 4.79917 7.02493C4.65917 6.69243 4.58918 6.3716 4.58918 6.06827C4.58918 5.86993 4.62418 5.67743 4.69418 5.50243C4.76418 5.3216 4.87502 5.15827 5.03252 5.01244C5.21919 4.82577 5.42334 4.73827 5.63918 4.73827C5.72084 4.73827 5.80249 4.75577 5.87833 4.79077C5.95416 4.82577 6.02418 4.87827 6.07668 4.9541L6.75333 5.91076C6.80583 5.98659 6.84667 6.05076 6.87 6.11493C6.89917 6.17909 6.91084 6.23743 6.91084 6.29576C6.91084 6.36576 6.88751 6.43577 6.84668 6.50577C6.80585 6.57577 6.75333 6.64576 6.68333 6.71576L6.46166 6.94909C6.42666 6.98409 6.41502 7.0191 6.41502 7.06576C6.41502 7.0891 6.42083 7.11243 6.42666 7.13576C6.43833 7.15909 6.44418 7.1766 6.45002 7.1941C6.50252 7.29326 6.59583 7.41575 6.72417 7.56742C6.85833 7.71909 6.99836 7.87659 7.15002 8.02826C7.30752 8.18576 7.45918 8.32575 7.61668 8.45992C7.76835 8.58825 7.89666 8.67577 7.99583 8.72827C8.01333 8.7341 8.03085 8.74575 8.04835 8.75159C8.07168 8.76325 8.09502 8.76327 8.12418 8.76327C8.17668 8.76327 8.21169 8.74577 8.24669 8.71077L8.46833 8.4891C8.54416 8.41326 8.61419 8.36077 8.67836 8.32577C8.74836 8.28493 8.81251 8.26159 8.88835 8.26159C8.94668 8.26159 9.00501 8.27326 9.06918 8.30243C9.13335 8.33159 9.20333 8.3666 9.27333 8.4191L10.2417 9.10743C10.3175 9.15993 10.37 9.2241 10.405 9.2941C10.4342 9.36993 10.4517 9.43993 10.4517 9.52159C10.4167 9.62076 10.3933 9.7316 10.3467 9.8366Z" fill="#FEFEFE"/>
</svg>
